<svg viewBox="0 0 232 40" fill="none" xmlns="http://www.w3.org/2000/svg"><g><path d="M102.029 8.73c-2.866 0-5.66 1.002-7.38 3.72-1.433-2.36-4.013-3.72-7.165-3.72-2.436 0-4.8.859-6.377 3.148V9.302h-5.66V31.2h5.803v-11.95c0-3.292 2.078-4.938 4.586-4.938 2.65 0 4.227 1.718 4.227 4.938V31.27h5.804V19.25c0-3.292 2.078-4.938 4.585-4.938 2.651 0 4.228 1.718 4.228 4.938V31.27h5.803V17.317c.143-5.08-3.296-8.587-8.454-8.587zm-36.04 12.594c0 3.291-2.078 4.937-4.586 4.937-2.65 0-4.227-1.717-4.227-4.937V9.374h-5.804v13.953c0 5.08 3.511 8.516 8.455 8.516 2.364 0 4.657-.788 6.234-2.934v2.361h5.803V9.374h-5.803v11.95h-.072zm-56.316-9.66v10.948c0 2.433.645 4.723 1.79 6.87l1.29 2.289 1.29-2.29c1.218-2.075 1.792-4.436 1.792-6.87V8.73c-2.293 0-4.586.787-6.162 2.934zM25.65.358H0v5.867h25.65V.358zM39.622 8.73c-2.364 0-4.657.787-6.233 2.934V.358h-5.804V31.27h5.803V19.25c0-3.292 2.078-4.938 4.586-4.938 2.651 0 4.227 1.718 4.227 4.938V31.27h5.804V17.317c.072-5.08-3.44-8.587-8.383-8.587zm86.552 0c-2.937 0-4.944 1.145-6.377 2.862V.358h-5.803v30.84h5.732v-2.432c1.433 1.789 3.511 3.005 6.448 3.005 5.947 0 10.461-4.937 10.461-11.52 0-6.584-4.442-11.521-10.461-11.521zm-.931 17.603c-3.296 0-5.589-2.576-5.589-6.011s2.221-6.01 5.589-6.01c3.439 0 5.588 2.718 5.588 6.01s-2.149 6.01-5.588 6.01zm36.183-6.082c0 6.511-4.443 11.377-10.318 11.377-2.866 0-4.872-1.145-6.305-2.79V40h-5.732V9.374h5.589v2.361c1.361-1.789 3.439-3.005 6.376-3.005 5.947.071 10.39 5.009 10.39 11.52zm-16.91 0c0 3.434 2.221 5.939 5.446 5.939 3.367 0 5.517-2.648 5.517-5.94 0-3.291-2.078-5.939-5.517-5.939-3.225-.071-5.446 2.505-5.446 5.94zm33.819-10.949l-.86 5.796c-.931-.429-2.293-.715-3.511-.715-2.651 0-4.514 1.646-4.514 4.866v11.806h-5.732V9.374h5.589v2.361c1.361-2.003 3.368-2.934 6.019-2.934 1.218 0 2.221.215 3.009.501zm9.529-5.581c0 2.075-1.576 3.72-3.654 3.72s-3.654-1.573-3.654-3.72c0-2.147 1.576-3.721 3.654-3.721s3.654 1.646 3.654 3.72zm-.788 27.334h-5.732V9.374h5.732v21.681zm24.146-13.81v13.81h-5.732V19.177c0-3.148-1.505-4.866-4.156-4.866-2.436 0-4.514 1.646-4.514 4.866v11.878h-5.732V9.374h5.589v2.576c1.505-2.29 3.869-3.149 6.305-3.149 4.729 0 8.24 3.435 8.24 8.444zm19.202-2.648h-7.738v7.943c0 2.72 1.433 3.721 3.224 3.721 1.361 0 2.866-.715 4.012-1.43L232 29.41c-1.863 1.288-4.012 2.29-7.093 2.29-5.302 0-7.953-3.006-7.953-8.659v-8.444h-4.156V9.445h4.084v-6.44h5.732v6.44h7.738v5.152h.072z" fill="#2F3033"/></g><defs><clipPath><path fill="#fff" d="M0 0H232V40H0z"/></clipPath></defs></svg>
