<svg xmlns="http://www.w3.org/2000/svg" fill="currentColor" width="755" height="1074">
  <path d="M377.286 551.939c-8.565 0-15.417-6.862-15.417-15.439s6.852-15.439 15.417-15.439 15.417 6.862 15.417 15.439-6.852 15.439-15.417 15.439zm62.096-15.439c0-7.719-1.285-15.01-4.283-22.301-1.713-4.717-7.28-7.29-11.991-5.146-4.71 1.716-7.28 7.291-5.139 12.008 2.142 5.146 2.998 10.293 2.998 15.868 0 24.016-19.271 43.314-43.253 43.314s-43.253-19.298-43.253-43.314c0-24.016 19.271-43.315 43.253-43.315 5.139 0 10.706.858 15.845 3.002 4.711 1.716 10.278-.429 11.991-5.146 1.713-4.717-.428-10.293-5.139-12.008-7.28-3.002-14.56-4.289-22.269-4.289-34.259 0-61.667 27.876-61.667 61.756 0 33.88 27.836 61.755 61.667 61.755 33.832 0 61.24-27.875 61.24-62.184zm52.674 0c0-63.042-51.39-114.505-114.342-114.505S263.372 473.458 263.372 536.5c0 35.595 16.273 68.617 44.538 90.918 3.854 3.002 9.85 2.573 12.847-1.716 2.998-3.859 2.57-9.863-1.713-12.865-23.982-18.441-37.686-46.317-37.686-76.337 0-53.178 43.253-96.064 95.928-96.064 52.674 0 95.927 43.315 95.927 96.064 0 52.749-43.253 96.064-95.927 96.064-7.709 0-15.417-.858-23.125-3.002-5.139-1.287-9.85 1.715-11.135 6.862-1.285 5.146 1.713 9.863 6.852 11.15 8.993 2.144 18.415 3.431 27.408 3.431 63.38 0 114.77-51.463 114.77-114.505zm16.702 102.926c2.998-3.86 2.569-9.864-1.713-12.866-3.854-3.002-9.85-2.573-12.848 1.715-28.264 36.453-71.089 57.038-116.911 57.038-81.795 0-148.602-66.901-148.602-148.813 0-29.591 8.565-58.325 25.267-82.769 2.997-4.289 1.713-9.864-2.57-12.866-4.282-3.002-9.85-1.716-12.847 2.573-18.415 27.447-28.265 59.611-28.265 93.062 0 92.204 74.944 167.254 167.017 167.254 51.818 0 99.782-23.158 131.472-64.328zm23.125-39.026c8.565-20.157 12.848-42.028 12.848-63.9 0-92.204-74.944-167.254-167.017-167.254-39.827 0-77.941 14.152-108.346 40.312-3.855 3.431-4.283 9.006-.857 12.866 3.426 3.86 8.993 4.289 12.847.858 26.98-23.159 61.24-35.595 96.356-35.595 81.795 0 148.602 66.901 148.602 148.813 0 19.727-3.854 39.026-11.134 57.038-2.142 4.717.428 10.293 5.138 12.008 1.285.429 2.142.858 3.426.858 2.998 0 6.424-2.145 8.137-6.004zm65.094-63.9c0-85.771-50.533-164.252-128.903-200.276l-41.54-14.152h-.856c-15.845-3.431-32.119-5.576-47.964-5.576-121.194 0-219.691 98.637-219.691 220.004 0 19.299 2.57 38.597 7.709 57.038 1.284 4.717 6.423 7.719 11.134 6.433 4.711-1.287 7.709-6.433 6.424-11.15-4.711-17.155-6.852-34.738-6.852-52.321 0-111.074 90.36-201.563 201.276-201.563 14.561 0 29.121 1.716 43.681 4.718l40.256 13.294C533.168 385.971 578.99 457.59 578.99 536.071c0 111.074-90.36 201.563-201.276 201.563-76.228 0-144.747-42.457-179.435-110.645-2.142-4.718-7.709-6.433-12.42-3.86-4.71 2.144-6.423 7.72-3.854 12.437 37.686 74.192 112.629 120.509 195.709 120.509 120.766.429 219.263-98.209 219.263-219.575zm-456.94-89.202c37.257-98.637 132.757-164.681 237.677-164.681 93.358 0 179.007 51.463 223.545 133.803 2.57 4.289 8.137 6.004 12.419 3.86 4.283-2.573 5.996-8.149 3.855-12.437-47.536-88.345-139.609-143.238-239.819-143.238-112.629 0-214.98 71.19-254.807 176.689-1.713 4.717.428 10.292 5.567 12.008.857.429 2.141.429 3.426.429 2.998-.858 6.424-3.002 8.137-6.433zm328.466 346.087C576.849 754.788 649.651 651.434 649.651 536.5c0-30.02-4.711-59.611-14.56-87.916-1.713-4.717-6.852-7.29-11.563-5.575-4.711 1.716-7.28 6.862-5.567 11.579 8.993 26.589 13.704 54.036 13.704 81.912 0 107.214-68.092 203.707-169.158 239.731-4.711 1.715-7.28 6.862-5.567 11.579 1.285 3.86 4.711 6.004 8.565 6.004.856 0 2.141 0 2.998-.429zm-43.253 11.579c5.139-.857 8.136-5.575 7.28-10.721-.857-5.146-5.567-8.148-10.706-7.291-14.561 2.574-29.549 3.86-44.538 3.86-140.037 0-253.951-114.076-253.951-254.312 0-16.297 1.713-33.022 4.711-49.319.856-5.146-2.141-9.863-7.28-10.721-5.139-.858-9.85 2.144-10.706 7.291-3.426 17.583-5.139 35.166-5.139 52.749 0 150.529 122.05 272.753 272.365 272.753 16.273 0 32.118-1.715 47.964-4.289zm266.369-300.628c5.139-.858 8.565-5.147 8.137-10.293-20.984-161.25-159.736-282.617-322.042-282.617-8.137 0-16.702.429-24.838.858-5.139.429-8.993 4.718-8.565 9.864.428 5.146 4.711 9.006 9.85 8.577 7.708-.429 15.845-.858 23.553-.858 153.313 0 283.928 114.505 303.627 266.749.429 4.718 4.711 8.149 8.994 8.149.428-.429.856-.429 1.284-.429zm10.707 34.308c0-5.146-3.855-9.435-8.994-9.435-5.139 0-9.421 3.86-9.421 9.006-.857 168.112-138.324 304.918-306.625 304.918-58.242 0-114.77-16.297-163.591-47.603-4.282-2.574-9.849-1.287-12.847 3.002-2.569 4.288-1.285 9.863 2.998 12.865 51.818 33.022 111.772 50.177 173.44 50.177 178.151.428 323.755-144.954 325.04-322.93zM181.149 783.95c3.426-3.859 2.997-9.863-1.285-12.865C110.916 712.331 71.089 626.989 71.089 536.5c0-143.238 101.495-269.322 241.103-299.771 5.139-1.287 8.137-6.004 6.852-11.15-1.284-5.147-5.995-8.149-11.134-6.862-71.517 15.439-136.183 55.323-182.862 112.361-47.107 57.895-73.23 130.801-73.23 205.422 0 95.635 41.968 186.553 115.627 248.737 1.713 1.287 3.854 2.144 5.995 2.144 2.998 0 5.996-1.286 7.709-3.431zm565.286-450.299c4.283-2.573 5.996-8.149 3.426-12.437-30.405-51.892-70.233-96.493-119.053-132.088-4.282-3.002-9.849-2.144-12.847 2.144-2.998 4.289-2.141 9.864 2.141 12.866 46.679 34.308 84.793 76.765 113.914 126.513 1.713 3.002 4.711 4.717 8.137 4.717 1.284-.429 2.569-.858 4.282-1.715zm-725.45-3.431c73.658-126.942 210.269-205.851 356.301-205.851 72.802 0 144.319 19.298 206.843 56.18 4.283 2.573 9.85 1.286 12.42-3.431 2.569-4.289 1.284-9.864-3.426-12.437-65.522-38.168-140.466-58.753-216.265-58.753-152.885 0-295.491 82.34-372.147 215.286-2.57 4.288-.857 9.864 3.426 12.437 1.713.857 3.426 1.286 5.139 1.286 2.997 0 5.995-1.715 7.708-4.717zm669.778-148.814c3.426-3.859 2.998-9.863-.857-12.865C602.544 94.349 491.628 53.178 377.714 53.178a478.339 478.339 0 0 0-85.649 7.72c-5.139.857-8.137 5.575-7.281 10.721.857 5.146 5.568 8.148 10.707 7.29 26.979-4.717 54.815-7.29 82.223-7.29 110.06 0 216.693 39.455 300.63 110.645 1.713 1.287 3.854 2.144 5.995 2.144s4.711-.857 6.424-3.002zm-613.678.858c51.389-43.743 112.2-75.907 176.437-93.92 4.711-1.286 7.709-6.432 6.424-11.15-1.285-4.717-6.424-7.72-11.134-6.433-66.807 18.441-130.187 52.321-183.718 97.78-3.855 3.431-4.283 9.006-.857 12.865 1.713 2.145 4.283 3.431 6.852 3.431 2.141-.429 4.282-.857 5.996-2.573zm61.667-104.64c73.23-38.598 155.882-58.754 238.534-58.754 21.412 0 42.825 1.286 64.237 3.86 5.139.857 9.85-3.003 10.278-8.149.428-5.146-2.998-9.864-8.137-10.292C421.824 1.715 399.126 0 377.286 0c-86.078 0-171.299 21.014-247.099 60.469-4.282 3.002-5.995 8.577-3.854 12.866 1.713 3.002 4.711 5.146 8.137 5.146 1.713 0 2.997-.429 4.282-.858zm489.915-4.29c2.57-4.717.428-10.292-3.854-12.436-43.253-22.3-89.504-39.026-137.468-48.89-5.139-.858-9.849 2.144-10.706 7.29-.856 5.147 2.141 9.864 7.28 10.722 46.251 9.864 90.789 25.731 132.329 47.603 1.285.858 2.998.858 4.282.858 2.998 0 6.424-1.716 8.137-5.146zM611.965 832.84C702.754 760.363 755 652.72 755 536.5c0-208.424-169.158-377.823-377.286-377.823-58.242 0-113.914 12.866-166.16 38.597-4.711 2.144-6.424 7.72-4.282 12.437 2.141 4.717 7.708 6.433 12.419 4.289 49.248-24.445 102.351-36.882 158.023-36.882 197.85 0 358.871 161.25 358.871 359.382 0 110.216-49.676 212.713-136.182 281.759-3.855 3.002-4.711 9.006-1.285 12.866 1.713 2.144 4.711 3.431 7.28 3.431 1.713 0 3.854-.429 5.567-1.716zm-36.401 25.303c4.283-2.573 5.568-8.149 2.998-12.866-2.569-4.289-8.565-5.575-12.847-3.002-56.529 35.166-121.623 53.607-188.429 53.607-152.456 0-288.639-96.922-339.172-241.446-1.713-4.718-6.852-7.291-11.563-5.576-4.71 1.716-7.28 6.862-5.567 11.58 53.103 151.815 196.137 253.883 356.302 253.883 70.232 0 138.752-19.299 198.278-56.18zM19.699 624.845c5.14-1.287 8.137-6.004 6.852-11.151-5.567-25.302-8.565-51.463-8.565-77.623 0-122.224 61.668-235.442 164.447-301.915 4.283-2.573 5.568-8.577 2.57-12.866-2.57-4.288-8.565-5.575-12.848-2.573C64.665 289.05 0 407.843 0 536.5c0 27.447 2.998 54.894 8.993 81.483.857 4.288 4.71 7.29 8.993 7.29.429 0 1.285 0 1.713-.428zm456.512 438.725c5.139-.86 8.137-5.58 7.28-10.73-.856-5.14-5.567-8.14-10.706-7.29-31.262 6.01-63.381 9.01-95.499 9.01-83.08 0-165.304-20.16-238.534-58.325-4.711-2.145-10.278-.429-12.419 3.855-2.141 4.72-.428 10.3 3.854 12.44 75.8 39.46 161.449 60.47 247.099 60.47 33.403-.43 66.378-3.43 98.925-9.43zm42.825-10.3c36.401-9.86 71.945-24.01 105.349-41.6 4.71-2.57 6.423-7.72 3.854-12.433-2.57-4.718-7.709-6.433-12.419-3.86-32.119 16.723-66.379 30.453-101.923 39.883-4.711 1.29-7.709 6.43-6.424 11.15 1.285 4.29 4.711 6.86 8.993 6.86 1.285.43 2.141.43 2.57 0zm-89.932-89.2c133.185-15.867 253.094-95.206 320.757-211.855 2.57-4.289.857-9.864-3.426-12.437-4.282-2.573-9.85-.858-12.419 3.431-64.665 111.932-179.436 187.41-307.053 202.849-5.139.429-8.565 5.147-8.137 10.293.428 4.717 4.711 8.148 8.993 8.148.428-.429.857-.429 1.285-.429zm-46.679 3.002h2.569c5.139 0 8.994-4.288 8.994-9.435 0-5.146-4.283-9.005-8.994-9.005h-7.28c-146.032 0-282.643-78.91-356.302-205.852-2.57-4.288-8.136-6.004-12.419-3.431-4.282 2.573-5.995 8.149-3.426 12.437 77.085 132.517 219.691 215.286 372.147 215.286h4.711zm-122.479 28.734c1.285-4.718-1.713-9.864-6.424-11.151-64.237-18.012-125.476-50.176-176.438-93.919-3.854-3.431-9.85-3.002-12.847.858-3.426 3.859-2.998 9.863.857 12.865 53.102 45.459 116.911 79.339 183.718 97.781.856.43 1.713.43 2.569.43 3.854 0 7.709-2.58 8.565-6.864zm429.96-90.918c3.855-3.431 4.283-9.006.857-12.866-3.426-3.859-8.993-4.288-12.847-.857-83.937 71.619-190.571 110.645-300.63 110.645-27.408 0-55.244-2.573-82.224-7.291-5.139-.858-9.849 2.573-10.706 7.291-.856 5.15 2.57 9.86 7.28 10.72a478.01 478.01 0 0 0 85.65 7.72c114.342-.43 225.258-41.17 312.62-115.362z" />
</svg>
