<svg xmlns="http://www.w3.org/2000/svg" fill="currentColor" width="28" height="28"><path fill-rule="evenodd" d="M21.075 21.075c-3.9 3.9-10.25 3.9-14.15 0-3.9-3.901-3.9-10.249 0-14.15a9.977 9.977 0 0 1 7.076-2.924 9.975 9.975 0 0 1 7.074 2.924c3.9 3.901 3.9 10.249 0 14.15M22.49 5.51c-4.68-4.68-12.297-4.682-16.98 0-4.68 4.68-4.68 12.297 0 16.978A11.973 11.973 0 0 0 14 26c3.074 0 6.15-1.17 8.49-3.51 4.68-4.682 4.68-12.298 0-16.98M17.998 13h-3V9.999a1 1 0 1 0-2 0V13h-3a1 1 0 1 0 0 2h3v3.002a1 1 0 1 0 2 0v-3.001h3a1 1 0 0 0 0-2.001"/></svg>