<svg xmlns="http://www.w3.org/2000/svg" fill="currentColor" width="28" height="28"><path fill-rule="evenodd" d="M20.604 3.2a1 1 0 0 0-1.2 1.6 11.408 11.408 0 0 1 4.598 9.2c0 3.65-1.674 7.004-4.599 9.2a1 1 0 1 0 1.2 1.598c3.434-2.576 5.4-6.513 5.4-10.798 0-4.286-1.966-8.223-5.4-10.8zM22 14a8.244 8.244 0 0 0-2.272-5.687 0.997 0.997 0 0 0-1.412-0.039 0.998 0.998 0 0 0-0.04 1.413A6.261 6.261 0 0 1 20.001 14a6.262 6.262 0 0 1-1.726 4.314 1 1 0 1 0 1.452 1.374 8.244 8.244 0 0 0 2.274-5.688zM12 7.13v13.74L8.351 17.97H5c-0.55 0-1-0.445-1-0.992v-5.957a0.999 0.999 0 0 1 1-0.992h3.351L12 7.13zM5 8.045c-1.654 0-3 1.336-3 2.978v5.957c0 1.642 1.346 2.978 3 2.978h2.651L14 25V3L7.651 8.044H5z"/></svg>