<svg xmlns="http://www.w3.org/2000/svg" fill="currentColor" width="28" height="28"><path fill-rule="evenodd" d="M24 11H4V7c0-0.551 0.449-1 1-1h2v2a1 1 0 0 0 2 0V6h10v2a1 1 0 0 0 2 0V6h2c0.551 0 1 0.449 1 1v4zm0 12c0 0.551-0.449 1-1 1H5c-0.551 0-1-0.449-1-1V13h20v10zM23 4h-2V3a1 1 0 0 0-2 0v1H9V3a1 1 0 0 0-2 0v1H5C3.346 4 2 5.346 2 7v16c0 1.654 1.346 3 3 3h18c1.654 0 3-1.346 3-3V7c0-1.654-1.346-3-3-3zm-4.5 13c0.827 0 1.5 0.673 1.5 1.5S19.327 20 18.5 20a1.502 1.502 0 0 1-1.5-1.5c0-0.827 0.673-1.5 1.5-1.5zm0 5c1.93 0 3.5-1.57 3.5-3.5S20.43 15 18.5 15 15 16.57 15 18.5s1.57 3.5 3.5 3.5z"/></svg>