<svg xmlns="http://www.w3.org/2000/svg" width="18" height="18" fill="currentColor"><path fill-rule="nonzero" d="M14.48 9.616a2.287 2.287 0 0 0-3.231 0l-1.038 1.038a7.042 7.042 0 0 1-2.865-2.866L8.384 6.75a2.288 2.288 0 0 0 0-3.229L6.53 1.668a2.284 2.284 0 0 0-3.23 0L2.42 2.55a4.875 4.875 0 0 0-1.327 4.396c0.972 4.985 4.975 8.99 9.96 9.962A4.96 4.96 0 0 0 12.007 17a4.862 4.862 0 0 0 3.444-1.42l0.88-0.88a2.284 2.284 0 0 0 0-3.23l-1.85-1.853zm-0.444 4.55a2.883 2.883 0 0 1-2.598 0.778c-4.196-0.819-7.564-4.187-8.382-8.382a2.88 2.88 0 0 1 0.778-2.599l0.88-0.88a0.286 0.286 0 0 1 0.402 0l1.853 1.851a0.285 0.285 0 0 1 0 0.402L4.96 7.347l0.258 0.62a9.04 9.04 0 0 0 4.817 4.815l0.618 0.258 2.01-2.01a0.283 0.283 0 0 1 0.402 0l1.853 1.853a0.285 0.285 0 0 1 0 0.401l-0.881 0.881z"/></svg>