<svg xmlns="http://www.w3.org/2000/svg" width="14" height="14" fill="currentColor"><path d="M11.4 7.462l1.427 1.39a1.68 1.68 0 0 1 0 2.422l-0.68 0.661A3.806 3.806 0 0 1 9.492 13a3.932 3.932 0 0 1-0.735-0.069c-3.846-0.73-6.934-3.733-7.684-7.472a3.59 3.59 0 0 1 1.023-3.297l0.68-0.66a1.798 1.798 0 0 1 2.491 0l1.43 1.389a1.683 1.683 0 0 1 0 2.422l-0.8 0.778a5.36 5.36 0 0 0 2.21 2.15l0.8-0.779a1.8 1.8 0 0 1 2.493 0zm-0.678 1.184C10.241 8.18 10.044 8.031 9.564 8.5L8.38 9.79c-1.284 0-3.99-3.003-3.99-3.967l0.816-0.773c0.667-0.579 0.48-1.132 0-1.599L4.708 2.956c-0.48-0.468-0.932-0.468-1.413 0L2.98 3.268C2.362 3.87 2.248 4.376 2.418 5.22c0.525 2.617 3.754 5.756 6.447 6.266a2.753 2.753 0 0 0 1.52-0.144 2.616 2.616 0 0 0 0.853-0.553l0.455-0.424c0.214-0.2 0.28-0.574-0.116-0.972l-0.855-0.747z" fill-rule="evenodd"/></svg>