<svg xmlns="http://www.w3.org/2000/svg" width="28" height="28" fill="currentColor"><path d="M24.17 17.822a2.84 2.84 0 0 1 0 4.012l-1.258 1.261A6.506 6.506 0 0 1 18.296 25a6.596 6.596 0 0 1-1.278-0.124C10.065 23.52 4.482 17.93 3.124 10.966a6.557 6.557 0 0 1 1.778-5.902l1.26-1.26c1.073-1.073 2.94-1.07 4.007 0l2.648 2.65a2.813 2.813 0 0 1 0.83 2.007 2.823 2.823 0 0 1-0.83 2.006l-1.706 1.706a10.491 10.491 0 0 0 4.702 4.705l1.705-1.706a2.835 2.835 0 0 1 4.007 0l2.646 2.65zm-1.413 2.597a0.836 0.836 0 0 0 0-1.18l-2.646-2.651a0.834 0.834 0 0 0-1.18 0l-2.668 2.672-0.62-0.26a12.484 12.484 0 0 1-6.652-6.657l-0.256-0.62 2.667-2.673a0.825 0.825 0 0 0 0.245-0.59 0.822 0.822 0 0 0-0.245-0.59L8.755 5.22a0.834 0.834 0 0 0-1.18 0L6.318 6.48a4.554 4.554 0 0 0-1.23 4.103c1.201 6.17 6.15 11.124 12.313 12.328a4.539 4.539 0 0 0 4.097-1.232l1.259-1.26z"/></svg>