<svg xmlns="http://www.w3.org/2000/svg" fill="currentColor" width="28" height="28"><path fill-rule="evenodd" d="M21.963 11.219c-0.395-4.046-3.814-7.22-7.963-7.22-4.146 0-7.567 3.174-7.962 7.22A5.479 5.479 0 0 0 2 16.499c0 3.033 2.469 5.5 5.5 5.5H9a1 1 0 1 0 0-2H7.5c-1.93 0-3.5-1.57-3.5-3.5a3.486 3.486 0 0 1 3.113-3.456L8 12.894v-0.895c0-3.308 2.692-6 6-6 3.31 0 6 2.692 5.999 5.993l-0.055 0.947 0.944 0.104A3.485 3.485 0 0 1 24 16.499c0 1.93-1.569 3.5-3.5 3.5H19a1 1 0 1 0 0 2h1.5c3.032 0 5.5-2.467 5.5-5.5a5.476 5.476 0 0 0-4.037-5.28m-3.232 5.466a1 1 0 0 0-0.046-1.414L14 10.88l-4.683 4.391a1 1 0 1 0 1.368 1.459L13 14.559v8.442a1 1 0 1 0 2 0v-8.442l2.317 2.171a0.997 0.997 0 0 0 1.414-0.045"/></svg>