<svg width="16px" height="16px" viewBox="0 0 16 16" version="1.1" xmlns="http://www.w3.org/2000/svg" xmlns:xlink="http://www.w3.org/1999/xlink" xmlns:sketch="http://www.bohemiancoding.com/sketch/ns">
    <!-- Generator: Sketch 3.5.2 (25235) - http://www.bohemiancoding.com/sketch -->
    <defs></defs>
    <g id="Page-1" stroke="none" stroke-width="1" sketch:type="MSPage">
        <g id="Weekly-Feedback---Web-Version-(design---mobile-min)" sketch:type="MSArtboardGroup" transform="translate(-105.000000, -2437.000000)">
            <g id="Competition" sketch:type="MSLayerGroup" transform="translate(20.000000, 555.000000)">
                <g id="Reviews" transform="translate(0.000000, 1472.000000)" sketch:type="MSShapeGroup">
                    <g id="Reviews-this-week" transform="translate(1.000000, 221.000000)">
                        <g id="Reviews-Histogram" transform="translate(18.000000, 90.000000)">
                            <g id="Raiting" transform="translate(52.000000, 32.000000)">
                                <path d="M22,67 C21.70325,67 21.45675,67.1998361 21.38,67.4733224 L19.8065,72.333235 L14.64,72.333235 C14.28325,72.333235 14,72.6436721 14,73.003377 C14,73.2233224 14.11,73.4198907 14.27675,73.536776 C14.38,73.6066557 18.45,76.5800656 18.45,76.5800656 C18.45,76.5800656 16.88675,81.380153 16.8565,81.4568197 C16.83325,81.5266995 16.81675,81.6036175 16.81675,81.6833005 C16.81675,82.0432568 17.1065,82.3333333 17.46325,82.3333333 C17.6,82.3333333 17.7265,82.2900984 17.83325,82.2169508 L22,79.1832131 C22,79.1832131 26.07325,82.1500874 26.16675,82.2169508 C26.273,82.2900984 26.4,82.3333333 26.5365,82.3333333 C26.89325,82.3333333 27.18325,82.0399891 27.18325,81.6833005 C27.18325,81.6036175 27.16675,81.5266995 27.14325,81.4568197 C27.11325,81.380153 25.55025,76.5800656 25.55025,76.5800656 C25.55025,76.5800656 29.61975,73.6066557 29.72325,73.536776 C29.89,73.4198907 30,73.2233224 30,73.0001093 C30,72.6436721 29.72325,72.333235 29.3665,72.333235 L24.2,72.333235 L22.61975,67.4733224 C22.54325,67.1998361 22.2965,67 22,67" id="Icon"></path>
                            </g>
                        </g>
                    </g>
                </g>
            </g>
        </g>
    </g>
</svg>
