<svg width="140" height="20" viewBox="0 0 140 20" fill="none" xmlns="http://www.w3.org/2000/svg">
<path fill-rule="evenodd" clip-rule="evenodd" d="M16.2568 3.74924H0V0H16.2568V3.74924ZM21.1958 7.20032C22.1738 5.82117 23.6338 5.33279 25.1362 5.33279C28.2544 5.33279 30.4795 7.53049 30.4795 10.7628V19.6258H26.7803V11.9694C26.7803 9.9585 25.7881 8.85196 24.1011 8.85196C22.5142 8.85196 21.1958 9.90082 21.1958 11.9982V19.6258H17.4966V0H21.1958V7.20032ZM103.806 17.0748C102.547 17.0744 101.932 16.2437 101.933 15.3832C101.933 14.2558 102.724 13.6928 103.719 13.5451L107.113 13.0306V13.683C107.112 16.2637 105.445 17.0753 103.806 17.0748ZM104.489 5.30588C102.25 5.30588 100.312 6.04321 98.8384 7.14932L100.245 9.74686C101.194 9.07156 102.424 8.49951 103.969 8.49951C105.478 8.49951 106.991 8.8895 106.991 10.6128C106.432 10.6936 102.488 11.1893 102.488 11.1893C100.088 11.5442 98.1855 12.9971 98.1846 15.6077C98.1836 17.8918 100.056 19.9987 103.13 20C105.037 20.0006 106.578 19.1232 107.296 17.9777L107.281 19.5989H110.867V11.3965C110.867 7.36011 108.387 5.30588 104.489 5.30588ZM70.1626 19.6259V10.7628C70.1626 7.53052 67.9795 5.33282 64.748 5.33282C62.9482 5.33282 61.1479 5.95056 60.085 7.71756C59.1636 6.23779 57.5337 5.33282 55.5498 5.33282C53.9907 5.33282 52.4883 5.86447 51.5103 7.34381V5.70627H47.9102V19.6259H51.6094V11.9982C51.6094 9.90085 52.9272 8.85199 54.5146 8.85199C56.2017 8.85199 57.1938 9.95853 57.1938 11.9694V19.6259H60.8931V11.9982C60.8931 9.90085 62.2109 8.85199 63.7983 8.85199C65.4707 8.85199 66.4771 9.95853 66.4771 11.9694V19.6259H70.1626ZM86.728 12.6588C86.728 16.8389 83.8652 19.9847 80.0811 19.9847C78.1816 19.9847 76.8638 19.2092 75.9707 18.0888V19.6258H72.3564V0.0144348H76.0415V7.15717C76.9346 6.06549 78.2241 5.33282 80.0669 5.33282C83.8652 5.33282 86.728 8.47864 86.728 12.6588ZM79.4639 16.4944C77.3662 16.4944 75.9346 14.8568 75.9346 12.6588C75.9346 10.4612 77.3662 8.82355 79.4639 8.82355C81.6465 8.82355 83.0073 10.5329 83.0073 12.6588C83.0073 14.7848 81.6465 16.4944 79.4639 16.4944ZM125.038 7.96155L122.374 10.2168C121.538 9.31195 120.644 8.82355 119.44 8.82355C117.526 8.82355 115.996 10.3463 115.996 12.6588C115.996 14.9858 117.512 16.4944 119.425 16.4944C120.616 16.4944 121.637 15.9485 122.417 15.0864L125.053 17.3706C123.763 19.0514 121.834 19.9847 119.54 19.9847C115.159 19.9847 112.226 16.8822 112.226 12.6588C112.226 8.44992 115.159 5.33282 119.54 5.33282C121.834 5.33282 123.776 6.28107 125.038 7.96155ZM134.79 5.70624H139.242L134.267 10.9094L140 19.6258H135.499L131.672 13.3234L130 15.0763V19.6258H126.3V0.0141907L130 0.0140991V10.881L134.79 5.70624ZM41.8501 18.1316C40.8721 19.5109 39.4121 19.9991 37.9097 19.9991C34.7915 19.9991 32.5664 17.8016 32.5664 14.5692V5.70624H36.2656V13.3627C36.2656 15.3736 37.2578 16.48 38.9443 16.48C40.5317 16.48 41.8501 15.4312 41.8501 13.3339V5.70624H45.5493V19.6258H41.8501V18.1316ZM89.2295 5.70624H87.2163V9.03909H89.2295V15.7465C89.2295 18.5341 91.2988 19.9697 93.1704 19.9697C95.9995 19.9697 97.2661 18.9867 97.2661 18.9867L96.0747 16.0045C96.0747 16.0045 95.0767 16.4941 94.3086 16.4941C93.5806 16.4941 92.915 15.9032 92.915 14.9283V9.03909H97.0151V5.70624H92.915V1.56924H89.2295V5.70624ZM10.1055 5.32614C8.59814 5.32614 7.13281 5.8161 6.15137 7.19992V14.1674C6.15137 15.6917 6.54688 17.1892 7.29785 18.5098L8.12842 19.9697L8.95898 18.5098C9.70996 17.1892 10.1055 15.6917 10.1055 14.1674V5.32614Z" fill="#2F3033"/>
</svg>
