<svg width="70" height="70" viewBox="0 0 70 70" fill="none" xmlns="http://www.w3.org/2000/svg">
<path fill-rule="evenodd" clip-rule="evenodd" d="M0 34.9998C0 54.3297 15.6703 70 34.9998 70C54.3297 70 70 54.3297 70 34.9998C70 15.6699 54.3297 0 34.9998 0C15.6703 0 0 15.6699 0 34.9998Z" fill="#009FD9"/>
<path fill-rule="evenodd" clip-rule="evenodd" d="M52.1011 26.3572H17.8975V18.574H52.1011V26.3572ZM36.7476 56.998C38.3276 54.2569 39.1597 51.1478 39.1597 47.9836V29.6306C35.9878 29.6306 32.9053 30.6476 30.8403 33.5203V47.9836C30.8403 51.1478 31.6724 54.2569 33.2529 56.998L35 60.0286L36.7476 56.998Z" fill="white"/>
</svg>
