<svg width="150" height="45" viewBox="0 0 150 45" fill="none" xmlns="http://www.w3.org/2000/svg">
<path fill-rule="evenodd" clip-rule="evenodd" d="M144.956 1.43444H5.04371C3.0381 1.43444 1.41224 3.08586 1.41224 5.12299V39.877C1.41224 41.9141 3.03811 43.5656 5.04372 43.5656H144.956C146.962 43.5656 148.588 41.9141 148.588 39.877V5.123C148.588 3.08586 146.962 1.43444 144.956 1.43444ZM5.04371 0C2.25815 0 0 2.29364 0 5.12299V39.877C0 42.7064 2.25815 45 5.04372 45H144.956C147.742 45 150 42.7064 150 39.877V5.123C150 2.29364 147.742 0 144.956 0H5.04371Z" fill="#2F3033"/>
<path fill-rule="evenodd" clip-rule="evenodd" d="M144.956 1.43444H5.04371C3.0381 1.43444 1.41224 3.08586 1.41224 5.12299V39.877C1.41224 41.9141 3.03811 43.5656 5.04372 43.5656H144.956C146.962 43.5656 148.588 41.9141 148.588 39.877V5.123C148.588 3.08586 146.962 1.43444 144.956 1.43444ZM5.04371 0C2.25815 0 0 2.29364 0 5.12299V39.877C0 42.7064 2.25815 45 5.04372 45H144.956C147.742 45 150 42.7064 150 39.877V5.123C150 2.29364 147.742 0 144.956 0H5.04371Z" fill="#2F3033"/>
<path fill-rule="evenodd" clip-rule="evenodd" d="M56.6759 34.52H59.1885L53.6882 19.043H51.1439L45.6436 34.52H48.0717L49.4758 30.4121H55.2823L56.6759 34.52ZM52.2946 21.8531H52.4741L54.6806 28.3957H50.0776L52.2946 21.8531ZM65.8508 22.6468C64.2883 22.6468 62.937 23.4405 62.2402 24.7705H62.0713V22.8399H59.8859V38.3061H62.1557V32.7503H62.3352C62.937 33.9837 64.2355 34.713 65.8719 34.713C68.7751 34.713 70.6227 32.3856 70.6227 28.6746C70.6227 24.9635 68.7751 22.6468 65.8508 22.6468ZM65.2068 32.643C63.3065 32.643 62.1135 31.12 62.1135 28.6853C62.1135 26.2399 63.3065 24.7168 65.2174 24.7168C67.1388 24.7168 68.2895 26.2077 68.2895 28.6746C68.2895 31.1522 67.1388 32.643 65.2068 32.643ZM77.6228 22.6468C76.0603 22.6468 74.709 23.4405 74.0122 24.7705H73.8433V22.8399H71.6579V38.3061H73.9277V32.7503H74.1072C74.709 33.9837 76.0075 34.713 77.6439 34.713C80.5471 34.713 82.3947 32.3856 82.3947 28.6746C82.3947 24.9635 80.5471 22.6468 77.6228 22.6468ZM76.9788 32.643C75.0785 32.643 73.8855 31.12 73.8855 28.6853C73.8855 26.2399 75.0785 24.7168 76.9894 24.7168C78.9108 24.7168 80.0615 26.2077 80.0615 28.6746C80.0615 31.1522 78.9108 32.643 76.9788 32.643ZM87.1995 30.3585C87.3684 33.1256 89.6382 34.8954 93.0166 34.8954C96.6271 34.8954 98.8864 33.0398 98.8864 30.0796C98.8864 27.7522 97.5984 26.4651 94.4735 25.725L92.7949 25.3067C90.8101 24.8348 90.0077 24.202 90.0077 23.0973C90.0077 21.703 91.2535 20.7913 93.1221 20.7913C94.8958 20.7913 96.1204 21.6815 96.3421 23.108H98.6436C98.5063 20.5017 96.2471 18.6676 93.1538 18.6676C89.8283 18.6676 87.6112 20.5017 87.6112 23.2582C87.6112 25.532 88.8676 26.8834 91.623 27.5376L93.5867 28.0203C95.6031 28.5029 96.4899 29.2108 96.4899 30.3906C96.4899 31.7635 95.0963 32.761 93.196 32.761C91.1585 32.761 89.7438 31.8279 89.5432 30.3585H87.1995ZM100.84 20.0083V22.8935H98.9504V24.8348H100.84V31.431C100.84 33.6834 101.843 34.5843 104.366 34.5843C104.81 34.5843 105.221 34.5307 105.58 34.4663V32.5465C105.264 32.5786 105.084 32.6001 104.736 32.6001C103.606 32.6001 103.11 32.0638 103.11 30.8411V24.8348H105.686V22.8935H103.11V20.0083H100.84ZM111.314 32.6966C109.339 32.6966 108.231 31.2272 108.231 28.6746C108.231 26.1433 109.339 24.6632 111.314 24.6632C113.277 24.6632 114.396 26.1433 114.396 28.6746C114.396 31.2165 113.277 32.6966 111.314 32.6966ZM111.314 34.7452C114.671 34.7452 116.729 32.4607 116.729 28.6746C116.729 24.9099 114.66 22.6146 111.314 22.6146C107.956 22.6146 105.887 24.9099 105.887 28.6746C105.887 32.4607 107.946 34.7452 111.314 34.7452ZM117.765 34.52H120.035V27.6235C120.035 25.9824 121.249 24.8777 122.959 24.8777C123.339 24.8777 124.036 24.9528 124.215 25.0171V22.7433C123.972 22.679 123.54 22.6468 123.212 22.6468C121.713 22.6468 120.446 23.4834 120.119 24.631H119.95V22.8399H117.765V34.52ZM129.326 24.5774C131.004 24.5774 132.102 25.7679 132.155 27.602H126.348C126.475 25.7787 127.647 24.5774 129.326 24.5774ZM132.144 31.3667C131.722 32.2783 130.782 32.7824 129.41 32.7824C127.594 32.7824 126.422 31.4846 126.348 29.4361V29.3074H134.467V28.5029C134.467 24.8348 132.535 22.6146 129.336 22.6146C126.095 22.6146 124.036 24.985 124.036 28.7175C124.036 32.4499 126.053 34.7452 129.347 34.7452C131.975 34.7452 133.812 33.4581 134.33 31.3667H132.144Z" fill="#2F3033"/>
<path fill-rule="evenodd" clip-rule="evenodd" d="M47.7705 7.47459V14.8446H50.3897C52.5514 14.8446 53.8032 13.4911 53.8032 11.1366C53.8032 8.81784 52.5414 7.47459 50.3897 7.47459H47.7705ZM48.8966 8.5165H50.264C51.7672 8.5165 52.657 9.48691 52.657 11.1519C52.657 12.8425 51.7823 13.8027 50.264 13.8027H48.8966V8.5165ZM57.7657 13.9763C56.8256 13.9763 56.2978 13.2766 56.2978 12.061C56.2978 10.8557 56.8256 10.1509 57.7657 10.1509C58.7008 10.1509 59.2337 10.8557 59.2337 12.061C59.2337 13.2715 58.7008 13.9763 57.7657 13.9763ZM57.7657 14.9518C59.3644 14.9518 60.3447 13.8639 60.3447 12.061C60.3447 10.2683 59.3594 9.17536 57.7657 9.17536C56.1671 9.17536 55.1817 10.2683 55.1817 12.061C55.1817 13.8639 56.162 14.9518 57.7657 14.9518ZM68.8167 9.28261H67.7358L66.7605 13.5269H66.6751L65.5489 9.28261H64.5133L63.3872 13.5269H63.3068L62.3265 9.28261H61.2305L62.7387 14.8446H63.8497L64.9758 10.7484H65.0613L66.1924 14.8446H67.3135L68.8167 9.28261ZM70.1901 14.8446H71.271V11.5912C71.271 10.7229 71.8039 10.1815 72.6736 10.1815C73.4779 10.1815 73.8701 10.6259 73.8701 11.5197V14.8446H74.9509V11.2439C74.9509 9.92104 74.2622 9.17536 73.0406 9.17536C72.2161 9.17536 71.5776 9.5482 71.3112 10.1662H71.2307V9.28261H70.1901V14.8446ZM76.7768 14.8446H77.8577V7.11197H76.7768V14.8446ZM82.0464 13.9763C81.1063 13.9763 80.5784 13.2766 80.5784 12.061C80.5784 10.8557 81.1063 10.1509 82.0464 10.1509C82.9815 10.1509 83.5144 10.8557 83.5144 12.061C83.5144 13.2715 82.9815 13.9763 82.0464 13.9763ZM82.0464 14.9518C83.6451 14.9518 84.6254 13.8639 84.6254 12.061C84.6254 10.2683 83.6401 9.17536 82.0464 9.17536C80.4478 9.17536 79.4624 10.2683 79.4624 12.061C79.4624 13.8639 80.4427 14.9518 82.0464 14.9518ZM87.9696 14.0121C87.3814 14.0121 86.954 13.7209 86.954 13.2204C86.954 12.7301 87.2959 12.4696 88.05 12.4186L89.3872 12.3317V12.7965C89.3872 13.486 88.784 14.0121 87.9696 14.0121ZM87.693 14.9365C88.4119 14.9365 89.0102 14.6198 89.3369 14.0631H89.4224V14.8446H90.463V11.0447C90.463 9.86996 89.6888 9.17536 88.3164 9.17536C87.0747 9.17536 86.1899 9.78824 86.0793 10.7433H87.1249C87.2456 10.3501 87.6629 10.1253 88.2661 10.1253C89.0051 10.1253 89.3872 10.4573 89.3872 11.0447V11.5248L87.9042 11.6116C86.6021 11.6933 85.8681 12.2704 85.8681 13.2715C85.8681 14.2879 86.6373 14.9365 87.693 14.9365ZM94.2596 14.9365C95.0137 14.9365 95.6522 14.5739 95.979 13.9661H96.0644V14.8446H97.1V7.11197H96.0192V10.1662H95.9387C95.6421 9.5533 95.0087 9.19068 94.2596 9.19068C92.8771 9.19068 91.9873 10.3041 91.9873 12.061C91.9873 13.8231 92.8671 14.9365 94.2596 14.9365ZM94.5663 10.1764C95.4712 10.1764 96.0393 10.9068 96.0393 12.0661C96.0393 13.2306 95.4763 13.9508 94.5663 13.9508C93.6514 13.9508 93.1034 13.2408 93.1034 12.061C93.1034 10.8914 93.6564 10.1764 94.5663 10.1764ZM104.361 13.9763C103.421 13.9763 102.894 13.2766 102.894 12.061C102.894 10.8557 103.421 10.1509 104.361 10.1509C105.297 10.1509 105.829 10.8557 105.829 12.061C105.829 13.2715 105.297 13.9763 104.361 13.9763ZM104.361 14.9518C105.96 14.9518 106.94 13.8639 106.94 12.061C106.94 10.2683 105.955 9.17536 104.361 9.17536C102.763 9.17536 101.777 10.2683 101.777 12.061C101.777 13.8639 102.758 14.9518 104.361 14.9518ZM108.495 14.8446H109.576V11.5912C109.576 10.7229 110.109 10.1815 110.978 10.1815C111.783 10.1815 112.175 10.6259 112.175 11.5197V14.8446H113.256V11.2439C113.256 9.92104 112.567 9.17536 111.345 9.17536C110.521 9.17536 109.882 9.5482 109.616 10.1662H109.536V9.28261H108.495V14.8446ZM118.486 7.93426V9.30815H117.586V10.2326H118.486V13.3736C118.486 14.4462 118.964 14.8752 120.165 14.8752C120.376 14.8752 120.572 14.8497 120.743 14.819V13.9048C120.592 13.9201 120.507 13.9303 120.341 13.9303C119.803 13.9303 119.567 13.675 119.567 13.0927V10.2326H120.794V9.30815H119.567V7.93426H118.486ZM122.333 14.8446H123.414V11.5963C123.414 10.7535 123.962 10.1866 124.847 10.1866C125.661 10.1866 126.068 10.6361 126.068 11.5248V14.8446H127.149V11.2541C127.149 9.93125 126.445 9.18046 125.214 9.18046C124.389 9.18046 123.756 9.5533 123.489 10.1764H123.404V7.11197H122.333V14.8446ZM131.177 10.11C131.976 10.11 132.499 10.6769 132.524 11.5503H129.759C129.82 10.682 130.378 10.11 131.177 10.11ZM132.519 13.343C132.318 13.7771 131.871 14.0172 131.217 14.0172C130.352 14.0172 129.794 13.3992 129.759 12.4237V12.3624H133.625V11.9793C133.625 10.2326 132.705 9.17536 131.182 9.17536C129.639 9.17536 128.658 10.3041 128.658 12.0815C128.658 13.8588 129.618 14.9518 131.187 14.9518C132.439 14.9518 133.313 14.3389 133.56 13.343H132.519Z" fill="#2F3033"/>
<path fill-rule="evenodd" clip-rule="evenodd" d="M31.4748 22.6536C31.4417 18.9126 34.4899 17.0925 34.6293 17.0078C32.903 14.4507 30.2272 14.1013 29.2869 14.0735C27.0396 13.8332 24.8596 15.4396 23.7148 15.4396C22.5472 15.4396 20.7843 14.0967 18.8842 14.1361C16.4392 14.1744 14.1519 15.6126 12.8974 17.8458C10.3085 22.3994 12.2393 29.091 14.7198 32.7717C15.9605 34.5755 17.4104 36.587 19.3081 36.5162C21.1647 36.4396 21.8582 35.3137 24.0987 35.3137C26.3186 35.3137 26.9699 36.5162 28.9053 36.4698C30.8979 36.4396 32.1523 34.6602 33.3497 32.8402C34.7836 30.7764 35.3594 28.7393 35.3823 28.6348C35.3365 28.6198 31.5137 27.1375 31.4748 22.6536Z" fill="#2F3033"/>
<path fill-rule="evenodd" clip-rule="evenodd" d="M27.8189 11.6522C28.8175 10.3835 29.5007 8.65749 29.311 6.90594C27.8657 6.97095 26.0583 7.92159 25.0174 9.16241C24.0966 10.2558 23.2739 12.048 23.4864 13.7334C25.11 13.8564 26.7769 12.9011 27.8189 11.6522Z" fill="#2F3033"/>
</svg>
