<svg width="150" height="45" viewBox="0 0 150 45" fill="none" xmlns="http://www.w3.org/2000/svg">
<path fill-rule="evenodd" clip-rule="evenodd" d="M144.956 1.43508H5.04371C3.03811 1.43508 1.41224 3.08724 1.41224 5.12529V39.8747C1.41224 41.9128 3.03811 43.5649 5.04372 43.5649H144.956C146.962 43.5649 148.588 41.9128 148.588 39.8747V5.12528C148.588 3.08724 146.962 1.43508 144.956 1.43508ZM5.04371 0C2.25815 0 0 2.29467 0 5.12529V39.8747C0 42.7053 2.25815 45 5.04372 45H144.956C147.742 45 150 42.7053 150 39.8747V5.12528C150 2.29467 147.742 0 144.956 0H5.04371Z" fill="#2F3033"/>
<path fill-rule="evenodd" clip-rule="evenodd" d="M144.956 1.43508H5.04371C3.03811 1.43508 1.41224 3.08724 1.41224 5.12529V39.8747C1.41224 41.9128 3.03811 43.5649 5.04372 43.5649H144.956C146.962 43.5649 148.588 41.9128 148.588 39.8747V5.12528C148.588 3.08724 146.962 1.43508 144.956 1.43508ZM5.04371 0C2.25815 0 0 2.29467 0 5.12529V39.8747C0 42.7053 2.25815 45 5.04372 45H144.956C147.742 45 150 42.7053 150 39.8747V5.12528C150 2.29467 147.742 0 144.956 0H5.04371Z" fill="#2F3033"/>
<path fill-rule="evenodd" clip-rule="evenodd" d="M83.1194 11.2705C83.1194 13.3077 81.4935 14.9591 79.4879 14.9591C77.4823 14.9591 75.8564 13.3077 75.8564 11.2705C75.8564 9.23339 77.4823 7.58197 79.4879 7.58197C81.4935 7.58197 83.1194 9.23339 83.1194 11.2705ZM82.0098 11.2705C82.0098 12.6852 80.8807 13.832 79.4879 13.832C78.0951 13.832 76.9661 12.6852 76.9661 11.2705C76.9661 9.85585 78.0951 8.70903 79.4879 8.70903C80.8807 8.70903 82.0098 9.85585 82.0098 11.2705Z" fill="#2F3033"/>
<path fill-rule="evenodd" clip-rule="evenodd" d="M57.8011 7.8887H53.7661V7.99121V8.70838V10.86V11.6797V13.9338V14.7536H54.8757L57.8011 14.7535V13.9338H54.8757V11.6797H57.4985V10.86H54.8757V8.70838H57.8011V7.8887Z" fill="#2F3033"/>
<path fill-rule="evenodd" clip-rule="evenodd" d="M60.6265 7.8887H58.9116V8.70838H60.6265V14.7535H61.7361V8.70838H63.451V7.8887H61.7361H60.6265Z" fill="#2F3033"/>
<path fill-rule="evenodd" clip-rule="evenodd" d="M70.5122 7.8887H68.7974V8.70838H70.5122V14.7535H71.6218V8.70838H73.3367V7.8887H71.6218H70.5122Z" fill="#2F3033"/>
<path d="M66.6792 7.8887H67.7888V14.7535H66.6792V7.8887Z" fill="#2F3033"/>
<path fill-rule="evenodd" clip-rule="evenodd" d="M84.0293 7.8887H84.231H85.1389H85.3407L88.3669 12.9117V7.8887H89.4765V14.7535H88.3669L85.1389 9.39561V14.7535H84.0293V7.8887Z" fill="#2F3033"/>
<path fill-rule="evenodd" clip-rule="evenodd" d="M49.6094 10.9807H52.6475L52.6174 11.9573H49.6094V10.9807Z" fill="#2F3033"/>
<path fill-rule="evenodd" clip-rule="evenodd" d="M49.563 14.9223C51.5645 14.9406 53.2339 13.5085 52.9001 11.0215C52.9001 11.0094 52.9 10.9972 52.8999 10.9852H52.0125C52.0198 11.089 52.0223 11.1958 52.0199 11.3056C52.022 13.0819 51.0135 13.9151 49.5931 13.9151C48.1727 13.9151 47.0213 12.7468 47.0213 11.3056C47.0213 9.86445 48.1727 8.69616 49.5931 8.69616C50.3037 8.69616 50.9196 8.94277 51.3532 9.39261L52.0484 8.68727C51.4571 8.05382 50.592 7.68906 49.563 7.68906C47.5944 7.68906 45.9985 9.30827 45.9985 11.3057C45.9985 13.3031 47.5944 14.9194 49.563 14.9223Z" fill="#2F3033"/>
<path fill-rule="evenodd" clip-rule="evenodd" d="M114.664 20.1846H108.945V29.0023H114.664C114.664 29.0023 117.956 28.4333 117.956 24.5934C117.956 20.7535 114.664 20.1846 114.664 20.1846ZM113.937 22.3175H110.055V27.0494H113.937C113.937 27.0494 115.704 27.0494 115.704 24.6835C115.704 22.3175 113.937 22.3175 113.937 22.3175Z" fill="#2F3033"/>
<path d="M108.438 20.1846H110.455V34.529H108.438V20.1846Z" fill="#2F3033"/>
<path d="M119.131 20.1846H121.148V34.529H119.131V20.1846Z" fill="#2F3033"/>
<path fill-rule="evenodd" clip-rule="evenodd" d="M126.541 25.0002C123.719 25.0002 122.779 26.9692 122.779 26.9692L124.459 27.978C124.459 27.978 124.865 26.9692 126.702 26.9692C128.039 26.9692 128.485 27.9948 128.629 28.553V28.9745C128.043 28.6852 126.775 28.2295 124.964 28.503C122.508 28.8739 122.557 31.1297 122.565 31.4858C122.565 31.5005 122.565 31.5119 122.565 31.5199C122.565 31.7208 122.567 34.7002 125.782 34.4963C127.185 34.4073 128.073 33.969 128.629 33.5033V34.5243H130.646V28.2976L130.647 28.286C130.647 27.4581 130.049 25.0002 126.541 25.0002ZM124.463 31.5846C124.598 29.3668 128.485 30.4308 128.485 30.4308C128.485 30.4308 128.537 30.6653 128.537 31.1653C128.192 32.7374 124.328 33.8024 124.463 31.5846Z" fill="#2F3033"/>
<path fill-rule="evenodd" clip-rule="evenodd" d="M135.441 31.5512L132.852 25.3076H130.835L134.432 33.9847L132.55 38.5249H134.567L140.026 25.3572H138.008L135.441 31.5512Z" fill="#2F3033"/>
<path fill-rule="evenodd" clip-rule="evenodd" d="M99.6553 25.0002C103.038 25.0002 103.922 28.6606 103.922 28.6606L97.5416 31.3391C97.5416 31.3391 97.9537 32.8205 99.8721 32.8304C101.374 32.8382 102.222 31.4781 102.222 31.4781L103.841 32.5916C103.841 32.5916 102.535 34.7376 99.8594 34.7376C96.5716 34.7376 95.1235 31.8175 95.1235 29.9211C95.1235 28.094 96.273 25.0002 99.6553 25.0002ZM99.4606 26.89C100.692 26.6612 101.495 27.9018 101.495 27.9018L97.184 29.6889C97.184 29.6889 96.8563 27.374 99.4606 26.89Z" fill="#2F3033"/>
<path d="M92.0996 20.1846H94.234V34.4989H92.0996V20.1846Z" fill="#2F3033"/>
<path fill-rule="evenodd" clip-rule="evenodd" d="M88.682 26.2046V25.3113L90.6551 25.3286V34.3604C90.6551 36.668 89.3024 39.104 86.118 39.104C82.9337 39.104 81.9052 36.2382 81.9052 36.2382L83.7172 35.4641C83.7172 35.4641 84.2699 37.2303 86.2122 37.2303C88.4241 37.2303 88.6823 35.1864 88.6823 34.4867V33.5065C88.6823 33.5065 87.9169 34.7232 86.016 34.7232C83.955 34.7232 81.5059 32.9296 81.5059 29.8719C81.5059 26.8143 83.8121 25.0653 86.0399 25.0017C87.8243 24.9507 88.682 26.2046 88.682 26.2046ZM88.7897 29.8977C88.7897 31.5491 87.6233 32.8878 86.1845 32.8878C84.7457 32.8878 83.5793 31.5491 83.5793 29.8977C83.5793 28.2463 84.7457 26.9076 86.1845 26.9076C87.6233 26.9076 88.7897 28.2463 88.7897 29.8977Z" fill="#2F3033"/>
<path fill-rule="evenodd" clip-rule="evenodd" d="M80.6188 29.867C80.6188 32.5549 78.4688 34.7339 75.8165 34.7339C73.1642 34.7339 71.0142 32.5549 71.0142 29.867C71.0142 27.1791 73.1642 25.0002 75.8165 25.0002C78.4688 25.0002 80.6188 27.1791 80.6188 29.867ZM78.4845 29.867C78.4845 31.5008 77.2759 32.8253 75.7851 32.8253C74.2943 32.8253 73.0858 31.5008 73.0858 29.867C73.0858 28.2332 74.2943 26.9087 75.7851 26.9087C77.2759 26.9087 78.4845 28.2332 78.4845 29.867Z" fill="#2F3033"/>
<path fill-rule="evenodd" clip-rule="evenodd" d="M70.2292 29.867C70.2292 32.5549 68.0791 34.7339 65.4269 34.7339C62.7746 34.7339 60.6245 32.5549 60.6245 29.867C60.6245 27.1791 62.7746 25.0002 65.4269 25.0002C68.0791 25.0002 70.2292 27.1791 70.2292 29.867ZM68.0949 29.867C68.0949 31.5008 66.8863 32.8253 65.3955 32.8253C63.9046 32.8253 62.6961 31.5008 62.6961 29.867C62.6961 28.2332 63.9046 26.9087 65.3955 26.9087C66.8863 26.9087 68.0949 28.2332 68.0949 29.867Z" fill="#2F3033"/>
<path fill-rule="evenodd" clip-rule="evenodd" d="M53.0273 26.5432H59.3677L59.3049 28.579H53.0273V26.5432Z" fill="#2F3033"/>
<path fill-rule="evenodd" clip-rule="evenodd" d="M52.9336 34.75C57.1106 34.7881 60.5945 31.803 59.8979 26.6188C59.8979 26.5935 59.8978 26.5683 59.8976 26.5431H58.0455C58.0606 26.7595 58.0658 26.9823 58.0608 27.2111C58.0652 30.9138 55.9606 32.6505 52.9963 32.6505C50.032 32.6505 47.629 30.2152 47.629 27.2111C47.629 24.207 50.032 21.7717 52.9963 21.7717C54.4793 21.7717 55.7646 22.2857 56.6696 23.2234L58.1204 21.7531C56.8863 20.4326 55.081 19.6723 52.9336 19.6723C48.8252 19.6723 45.4946 23.0475 45.4946 27.2111C45.4946 31.3747 48.8252 34.744 52.9336 34.75Z" fill="#2F3033"/>
<path fill-rule="evenodd" clip-rule="evenodd" d="M13.6643 35.573C13.7823 35.5287 13.8969 35.4753 14.007 35.4135L29.6548 26.7095L25.9451 22.9505L13.6643 35.573ZM30.3475 26.3251L26.4771 22.4029L30.3439 18.4299L35.6676 21.3802C36.9798 22.1055 36.3085 23.0121 35.6676 23.3748L30.3475 26.3323V26.3251ZM29.6513 18.0418L14.007 9.38322C13.8373 9.28951 13.6522 9.22806 13.4607 9.20189L25.9415 21.8607L29.6513 18.0527V18.0418ZM12.5431 9.3579L25.4095 22.4138L12.6038 35.5695C12.2307 35.3301 12.0307 34.8061 12.0272 34.1315C12.02 32.8386 11.9111 12.31 11.9111 10.7705C11.9111 10.0306 12.1718 9.58094 12.5431 9.3579Z" fill="#2F3033"/>
</svg>
