<svg width="100" height="100" viewBox="0 0 100 100" fill="none" xmlns="http://www.w3.org/2000/svg">
<rect width="100" height="100" fill="white"/>
<path d="M75.9045 15.0158C64.1305 14.5275 14.6346 25.4326 8.11015 37.7212C-4.71378 61.8915 25.1337 82.3183 42.8322 84.7597C56.0311 86.6315 86.4036 77.354 93.153 64.333C98.4026 54.4044 92.4031 15.6668 75.9045 15.0158Z" fill="#C7E5F2" fill-opacity="0.2"/>
<g clip-path="url(#clip0)">
<path d="M43.1194 77.7052H32.1662C30.4119 77.7052 29 76.2317 29 74.4011V24.3041C29 22.4734 30.4119 21 32.1662 21H43.1194C44.8736 21 46.2856 22.4734 46.2856 24.3041V74.4011C46.2856 76.2317 44.8736 77.7052 43.1194 77.7052Z" fill="#4661CC"/>
<path d="M70.1174 72.5258H72.0428V71.0077H32.808C30.7114 71.0077 29 72.7937 29 75.0262C29 77.2587 30.7114 79 32.808 79H72V77.4819H70.0746V72.5258H70.1174Z" fill="#A97FF0"/>
<path d="M30.7543 75.0262C30.7543 76.4103 31.8239 77.4819 33.1075 77.4819H70.2458V74.0439H30.9254C30.8398 74.3564 30.7543 74.669 30.7543 75.0262Z" fill="#C5E4F2"/>
<path d="M33.1504 72.5258C32.1663 72.5258 31.3106 73.1509 30.9683 74.0439H70.2887V72.5258H33.1504Z" fill="#DDDDDD"/>
<path d="M72 21H32.209V71.0077H72V21Z" fill="#6E85DF"/>
<path d="M66.9085 21H58.394V33.5466L62.6727 29.0816L66.9085 33.5466" fill="#FCCA53"/>
</g>
<path fill-rule="evenodd" clip-rule="evenodd" d="M42 46.9999C42 51.9705 46.0295 56 50.9999 56C55.9705 56 60 51.9705 60 46.9999C60 42.0294 55.9705 38 50.9999 38C46.0295 38 42 42.0294 42 46.9999Z" fill="white"/>
<path fill-rule="evenodd" clip-rule="evenodd" d="M52 50.2263C52 50.9549 51.8 51.6709 51.4201 52.3021L50.9999 53L50.5799 52.3021C50.2 51.6709 50 50.9549 50 50.2263V46.8957C50.4964 46.2342 51.2374 46 52 46V50.2263Z" fill="#6E85DF"/>
<path fill-rule="evenodd" clip-rule="evenodd" d="M47 45H55V43H47V45Z" fill="#6E85DF"/>
<defs>
<clipPath id="clip0">
<rect width="43" height="58" fill="white" transform="translate(29 21)"/>
</clipPath>
</defs>
</svg>
