<svg width="100" height="100" fill="none" xmlns="http://www.w3.org/2000/svg"><path fill="#fff" d="M0 0H100V100H0z"/><path d="M24.446 81.825c12.725 1.115 21.473-3.347 33.006-6.136 12.195-3.067 26.245.14 34.198-10.178 10.605-13.944-5.965-36.114-21.871-41.97-14.846-5.439-54.347 4.322-62.433 16.732-6.097 9.481 1.326 13.525 3.844 22.449 1.591 6.135 1.856 17.987 13.256 19.103z" fill="#F4FAFC"/><path d="M28 27.485v53.03c0 .742.58 1.485 1.452 1.485h41.096c.726 0 1.452-.594 1.452-1.485v-53.03c0-.742-.58-1.485-1.452-1.485H29.307C28.58 26 28 26.743 28 27.485z" fill="#A982ED"/><path d="M69 30H32v48h37V30z" fill="#FAFDFC"/><path d="M56.43 25.87H43.586c-3.066 0-5.693 2.523-5.693 5.79h24.232c0-3.118-2.628-5.79-5.693-5.79z" fill="#5968E2"/><path d="M49.862 18c-2.19 0-4.087 1.93-4.087 4.157v5.94h8.174v-5.94c0-2.227-1.751-4.157-4.087-4.157zm.146 5.642c-.876 0-1.46-.742-1.46-1.485 0-.89.73-1.485 1.46-1.485.876 0 1.46.743 1.46 1.485 0 .891-.73 1.485-1.46 1.485z" fill="#5968E2"/><path d="M62.405 43h-15.81c-.34 0-.595-.429-.595-1s.255-1 .595-1h15.81c.34 0 .595.429.595 1s-.255 1-.595 1zm0 27h-15.81c-.34 0-.595-.429-.595-1s.255-1 .595-1h15.81c.34 0 .595.429.595 1s-.255 1-.595 1zm0-18h-15.81c-.34 0-.595-.429-.595-1s.255-1 .595-1h15.81c.34 0 .595.429.595 1s-.255 1-.595 1zM40.913 63h-1.826C37.913 63 37 61.687 37 60c0-1.688.913-3 2.087-3h1.826C42.087 57 43 58.313 43 60c-.13 1.688-1.044 3-2.087 3z" fill="#C7E5F2"/><path d="M40.913 63h-1.826C37.913 63 37 61.687 37 60c0-1.688.913-3 2.087-3h1.826C42.087 57 43 58.313 43 60c-.13 1.688-1.044 3-2.087 3z" fill="#C7E5F2"/><path d="M40.913 63h-1.826C37.913 63 37 61.687 37 60c0-1.688.913-3 2.087-3h1.826C42.087 57 43 58.313 43 60c-.13 1.688-1.044 3-2.087 3z" fill="#C7E5F2"/><path d="M40.913 63h-1.826C37.913 63 37 61.687 37 60c0-1.688.913-3 2.087-3h1.826C42.087 57 43 58.313 43 60c-.13 1.688-1.044 3-2.087 3z" fill="#C7E5F2"/><path d="M40.913 63h-1.826C37.913 63 37 61.687 37 60c0-1.688.913-3 2.087-3h1.826C42.087 57 43 58.313 43 60c-.13 1.688-1.044 3-2.087 3z" fill="#C7E5F2"/><path d="M40.913 63h-1.826C37.913 63 37 61.687 37 60c0-1.688.913-3 2.087-3h1.826C42.087 57 43 58.313 43 60c-.13 1.688-1.044 3-2.087 3z" fill="#C7E5F2"/><path d="M40.913 63h-1.826C37.913 63 37 61.687 37 60c0-1.688.913-3 2.087-3h1.826C42.087 57 43 58.313 43 60c-.13 1.688-1.044 3-2.087 3z" fill="#C7E5F2"/><path d="M40.913 63h-1.826C37.913 63 37 61.687 37 60c0-1.688.913-3 2.087-3h1.826C42.087 57 43 58.313 43 60c-.13 1.688-1.044 3-2.087 3zm0 9h-1.826C37.913 72 37 70.687 37 69c0-1.688.913-3 2.087-3h1.826C42.087 66 43 67.313 43 69c-.13 1.688-1.044 3-2.087 3z" fill="#C7E5F2"/><path d="M40.913 72h-1.826C37.913 72 37 70.687 37 69c0-1.688.913-3 2.087-3h1.826C42.087 66 43 67.313 43 69c-.13 1.688-1.044 3-2.087 3z" fill="#C7E5F2"/><path d="M40.913 72h-1.826C37.913 72 37 70.687 37 69c0-1.688.913-3 2.087-3h1.826C42.087 66 43 67.313 43 69c-.13 1.688-1.044 3-2.087 3z" fill="#C7E5F2"/><path d="M40.913 72h-1.826C37.913 72 37 70.687 37 69c0-1.688.913-3 2.087-3h1.826C42.087 66 43 67.313 43 69c-.13 1.688-1.044 3-2.087 3z" fill="#C7E5F2"/><path d="M40.913 72h-1.826C37.913 72 37 70.687 37 69c0-1.688.913-3 2.087-3h1.826C42.087 66 43 67.313 43 69c-.13 1.688-1.044 3-2.087 3z" fill="#C7E5F2"/><path d="M40.913 72h-1.826C37.913 72 37 70.687 37 69c0-1.688.913-3 2.087-3h1.826C42.087 66 43 67.313 43 69c-.13 1.688-1.044 3-2.087 3z" fill="#C7E5F2"/><path d="M40.913 72h-1.826C37.913 72 37 70.687 37 69c0-1.688.913-3 2.087-3h1.826C42.087 66 43 67.313 43 69c-.13 1.688-1.044 3-2.087 3z" fill="#C7E5F2"/><path d="M40.913 72h-1.826C37.913 72 37 70.687 37 69c0-1.688.913-3 2.087-3h1.826C42.087 66 43 67.313 43 69c-.13 1.688-1.044 3-2.087 3zm21.492-11h-15.81c-.34 0-.595-.429-.595-1s.255-1 .595-1h15.81c.34 0 .595.429.595 1s-.255 1-.595 1z" fill="#C7E5F2"/><path d="M76.427 55.135l1.588 3.769 4.632-2.02-1.456-3.769-2.514-2.961-2.515 1.211.265 3.77z" fill="#FCCB56"/><path d="M90.853 82.596l-.397.135c-1.191.538-2.515 0-3.044-1.212v-.134a2.332 2.332 0 0 1 1.19-3.097l.398-.134c1.191-.539 2.515 0 3.044 1.211v.135c.53 1.212 0 2.558-1.191 3.096z" fill="#A982ED"/><path d="M78.412 56.212l-1.986-1.077 10.589 25.577 1.323-.539-9.926-23.962z" fill="#FCCA53"/><path d="M78.809 54.192l-.397 2.02 9.926 23.961 1.06-.538 1.058-.404-9.927-23.962-1.72-1.077z" fill="#FBBD33"/><path d="M81.191 53.115l-.662 2.154 9.927 23.962 1.323-.539-10.588-25.577z" fill="#FCCA53"/><path d="M91.912 78.288l-.794-1.884-5.294 2.288.794 1.885.264.673 5.427-2.288-.397-.674z" fill="#E3F4F7"/><path d="M76.162 51.365l2.514-1.211-2.911-3.5.397 4.711z" fill="#2F3033"/><path d="M36 41.833L38.46 44 43 40m-7 9.833L38.46 52 43 48" stroke="#000" stroke-width="2"/></svg>