<svg width="100" height="100" fill="none" xmlns="http://www.w3.org/2000/svg"><path fill="#fff" d="M0 0H100V100H0z"/><path d="M75.91 15.015c-11.775-.46-61.275 9.803-67.8 21.367C-4.715 59.13 25.135 78.352 42.835 80.65c13.2 1.762 43.575-6.969 50.325-19.223 5.25-9.343-.75-45.798-17.25-46.411z" fill="#C7E5F2" fill-opacity=".2"/><path d="M77.486 46.416h-9.975c-6.75 0-12.225 5.59-12.225 12.483 0 5.668 3.675 10.492 8.775 12.024 1.125.306 2.25.536 3.45.536H77.786l5.1 5.208c.075.077.15 0 .15-.076v-6.434c.075 0 .15-.076.225-.076 3.825-1.762 6.45-5.668 6.45-10.186v-.919c0-6.97-5.475-12.56-12.225-12.56z" fill="#C7E5F2"/><path d="M56.036 17.39H41.111c-10.125 0-18.3 8.347-18.375 18.61v1.378c0 6.816 3.975 12.637 9.675 15.241.075.077.225.077.3.153v7.735c0 .843.975 1.302 1.575.69l6.3-6.434h15.45c1.8 0 3.525-.306 5.175-.765 7.575-2.221 13.125-9.344 13.125-17.845 0-10.34-8.175-18.764-18.3-18.764z" fill="#6676E1"/><path d="M36.836 38.757c1.574 0 2.85-1.303 2.85-2.91 0-1.608-1.276-2.91-2.85-2.91s-2.85 1.302-2.85 2.91c0 1.607 1.276 2.91 2.85 2.91zm11.7 0c1.574 0 2.85-1.303 2.85-2.91 0-1.608-1.276-2.91-2.85-2.91s-2.85 1.302-2.85 2.91c0 1.607 1.276 2.91 2.85 2.91zm11.775 0c1.574 0 2.85-1.303 2.85-2.91 0-1.608-1.276-2.91-2.85-2.91s-2.85 1.302-2.85 2.91c0 1.607 1.276 2.91 2.85 2.91z" fill="#F3F8F9"/><path d="M40.571 65.015h-6.07c-4.101 0-7.383 3.455-7.465 7.773v.604c0 2.85 1.64 5.269 3.938 6.391.082 0 .082 0 .164.087v4.059c0 .086.082.086.082.086l3.117-3.282h6.234c.739 0 1.477-.086 2.133-.345 3.117-.95 5.332-3.973 5.332-7.514 0-4.404-3.363-7.859-7.465-7.859z" fill="#FCCA53"/></svg>