<svg fill="none" height="44" viewBox="0 0 108 44" width="108" xmlns="http://www.w3.org/2000/svg"><rect fill="#005a7a" height="44" rx="4" width="108"/><g fill="#fff"><path d="m21.9985 29.5c-.829 0-1.5-.671-1.5-1.5s.671-1.5 1.5-1.5 1.5.671 1.5 1.5-.671 1.5-1.5 1.5zm-.999-11.5c0-.552.448-1 1-1 .553 0 1 .448 1 1v6c0 .552-.447 1-1 1-.552 0-1-.448-1-1zm12.42 8.502-7.639-13.315c-.785-1.37-2.199-2.187-3.781-2.187s-2.995.817-3.78 2.187l-7.639 13.315c-.77896 1.356-.77496 2.974.008 4.327.787 1.359 2.198 2.171 3.772 2.171h15.279c1.574 0 2.984-.812 3.772-2.171.783-1.353.787-2.971.008-4.327z"/><rect height="6" rx="3" width="53" x="43" y="12"/><rect height="6" rx="3" width="38" x="43" y="25"/></g></svg>