<svg fill="none" height="70" viewBox="0 0 70 70" width="70" xmlns="http://www.w3.org/2000/svg" xmlns:xlink="http://www.w3.org/1999/xlink"><clipPath id="a"><path d="m0 0h70v70h-70z"/></clipPath><mask id="b" height="77" maskUnits="userSpaceOnUse" width="52" x="8" y="9"><path d="m47.3221 22.3431c0 7.2176-5.851 13.0687-13.0686 13.0687s-13.0686-5.8511-13.0686-13.0687 5.851-13.06859 13.0686-13.06859 13.0686 5.85099 13.0686 13.06859z" fill="#fff"/><path d="m12.0454 49.6428c.8901-6.2306 6.2262-10.8585 12.52-10.8585h19.3762c6.2939 0 11.6299 4.6279 12.52 10.8585l3.1316 21.9216c1.0885 7.619-4.8235 14.4356-12.5199 14.4356h-25.6396c-7.6963 0-13.60834-6.8166-12.51991-14.4356z" fill="#fff"/></mask><g clip-path="url(#a)"><ellipse cx="34.5" cy="35" fill="#005979" rx="34.5" ry="35"/><g mask="url(#b)"><circle cx="34.5" cy="34.9902" fill="#fff" r="30.7745"/></g></g></svg>