<svg fill="none" height="44" viewBox="0 0 140 44" width="140" xmlns="http://www.w3.org/2000/svg"><rect fill="#005a7a" height="44" rx="4" width="66"/><rect fill="#fff" height="42" rx="3" stroke="#005a7a" stroke-width="2" width="64" x="75" y="1"/><path d="m40.5994 14.2001c-.439-.332-1.067-.241-1.398.2l-8.381 11.175-4.196-3.356c-.43-.345-1.059-.274-1.406.156-.345.431-.273 1.061.156 1.406l5.806 4.644 9.619-12.825c.332-.442.242-1.069-.2-1.4z" fill="#fff"/><path d="m109.764 28.6457 8.236-7.6457-8.275-7.6888c-.182-.1917-.44-.3112-.725-.3112-.552 0-1 .4477-1 1 0 .2495.091.4777.243.6528l5.507 5.3472h-16.7481c-.5542 0-1.0019.4477-1.0019 1s.4477 1 1 1h16.75l-5.449 5.2849c-.187.2001-.301.4349-.301.7151 0 .5523.448 1 1 1 .306 0 .537-.1513.764-.3543z" fill="#005a7a"/></svg>