<svg fill="none" height="54" viewBox="0 0 80 54" width="80" xmlns="http://www.w3.org/2000/svg"><g stroke="#005a7a" stroke-width="2"><path d="m1 1h26v26h-26z" fill="#fff"/><path d="m27 1h26v26h-26z" fill="#fff"/><path d="m53 1h26v26h-26z" fill="#e9eced"/><path d="m1 27h26v26h-26z" fill="#e9eced"/><path d="m27 27h26v26h-26z" fill="#fff"/></g><path d="m19.5812 8.19812c-.449-.34131-1.075-.23073-1.396.24775l-5.1679 7.69493-3.48893-2.3083c-.46999-.3105-1.08598-.1585-1.37797.3402-.291.4987-.147 1.1547.32199 1.4652l5.08191 3.3621 6.2589-9.31753c.3219-.47848.217-1.14303-.232-1.48435z" fill="#005a7a"/><path d="m45.5812 8.19812c-.449-.34131-1.075-.23073-1.396.24775l-5.1679 7.69493-3.4889-2.3083c-.47-.3105-1.086-.1585-1.378.3402-.291.4987-.147 1.1547.322 1.4652l5.0819 3.3621 6.2589-9.31753c.3219-.47848.217-1.14303-.232-1.48435z" fill="#005a7a"/><path d="m45.5812 34.1981c-.449-.3413-1.075-.2307-1.396.2478l-5.1679 7.6949-3.4889-2.3083c-.47-.3105-1.086-.1585-1.378.3402-.291.4987-.147 1.1547.322 1.4652l5.0819 3.3621 6.2589-9.3175c.3219-.4785.217-1.1431-.232-1.4844z" fill="#005a7a"/></svg>