<svg fill="none" height="64" viewBox="0 0 172 64" width="172" xmlns="http://www.w3.org/2000/svg"><g stroke="#005a7a" stroke-width="2"><rect fill="#fff" height="50" rx="3" width="64" x="54" y="7"/><path d="m131 7h23v50h-23c-1.657 0-3-1.3431-3-3v-44c0-1.65685 1.343-3 3-3z" fill="#fff"/><path d="m18 7h23c1.6569 0 3 1.34315 3 3v44c0 1.6569-1.3431 3-3 3h-23z" fill="#fff"/><path d="m154 0v64"/><path d="m18 0v64"/></g><path d="m165.764 37.6457 6.236-5.6457-6.275-5.6888c-.182-.1917-.44-.3112-.725-.3112-.552 0-1 .4477-1 1 0 .2495.091.4777.242.6528l4.758 4.3472-4.699 4.2849c-.187.2001-.301.4349-.301.7151 0 .5523.448 1 1 1 .306 0 .537-.1513.764-.3543z" fill="#005a7a"/><path d="m6.23642 26.3543-6.23642052 5.6457 6.27506052 5.6888c.18219.1917.43961.3112.72494.3112.55228 0 1-.4477 1-1 0-.2495-.09137-.4777-.24247-.6528l-4.75753-4.3472 4.69905-4.2849c.18652-.2001.30095-.4349.30095-.7151 0-.5523-.44772-1-1-1-.30614 0-.53661.1513-.76358.3543z" fill="#005a7a"/></svg>