<svg width="80" height="54" viewBox="0 0 80 54" fill="none" xmlns="http://www.w3.org/2000/svg">
<rect x="1" y="1" width="26" height="26" fill="white" stroke="#005A7A" stroke-width="2"/>
<rect x="27" y="1" width="26" height="26" fill="white" stroke="#005A7A" stroke-width="2"/>
<rect x="53" y="1" width="26" height="26" fill="#E9ECED" stroke="#005A7A" stroke-width="2"/>
<rect x="1" y="27" width="26" height="26" fill="#E9ECED" stroke="#005A7A" stroke-width="2"/>
<rect x="27" y="27" width="26" height="26" fill="#E9ECED" stroke="#005A7A" stroke-width="2"/>
<rect x="53" y="27" width="26" height="26" fill="white" stroke="#005A7A" stroke-width="2"/>
<path d="M19.5812 8.19812C19.1322 7.85681 18.5062 7.96739 18.1852 8.44587L13.0173 16.1408L9.52837 13.8325C9.05838 13.522 8.44239 13.674 8.1504 14.1727C7.8594 14.6714 8.0034 15.3274 8.47239 15.6379L13.5543 19L19.8132 9.68247C20.1351 9.20399 20.0302 8.53944 19.5812 8.19812Z" fill="#005A7A"/>
<path d="M45.5812 8.19812C45.1322 7.85681 44.5062 7.96739 44.1852 8.44587L39.0173 16.1408L35.5284 13.8325C35.0584 13.522 34.4424 13.674 34.1504 14.1727C33.8594 14.6714 34.0034 15.3274 34.4724 15.6379L39.5543 19L45.8132 9.68247C46.1351 9.20399 46.0302 8.53944 45.5812 8.19812Z" fill="#005A7A"/>
<path d="M71.5812 34.1981C71.1322 33.8568 70.5062 33.9674 70.1852 34.4459L65.0173 42.1408L61.5284 39.8325C61.0584 39.522 60.4424 39.674 60.1504 40.1727C59.8594 40.6714 60.0034 41.3274 60.4724 41.6379L65.5543 45L71.8132 35.6825C72.1351 35.204 72.0302 34.5394 71.5812 34.1981Z" fill="#005A7A"/>
</svg>
