<svg fill="none" height="44" viewBox="0 0 48 44" width="48" xmlns="http://www.w3.org/2000/svg"><circle cx="24" cy="22" fill="#005a7a" r="22"/><path d="m18.8821 16.1h-1.6915l-4.8875 11.9h1.4195l1.343-3.315h5.8905l1.3515 3.315h1.462zm-.867 1.3515 2.4225 5.9415h-4.845zm7.7849-1.3515v11.9h4.828c2.635 0 4.335-.9945 4.335-3.3065 0-1.479-.8585-2.431-2.0485-2.822 1.071-.374 1.7935-1.292 1.7935-2.635 0-2.261-1.802-3.1365-4.301-3.1365zm4.7685 6.5025c1.785 0 2.958.4675 2.958 2.0485 0 1.598-1.173 2.0655-2.958 2.0655h-3.4v-4.114zm-.2125-5.219c1.6405 0 2.9155.3995 2.9155 1.955 0 1.598-1.2665 1.989-2.907 1.989h-3.196v-3.944z" fill="#fff"/></svg>