<svg fill="none" height="44" viewBox="0 0 160 44" width="160" xmlns="http://www.w3.org/2000/svg"><rect fill="#005a7a" height="44" rx="22" width="108"/><rect fill="#005a7a" height="44" rx="22" width="44" x="116"/><g fill="#fff"><path d="m65 15h-22c-.552 0-1 .448-1 1s.448 1 1 1h22c.552 0 1-.448 1-1s-.448-1-1-1zm-3 6h-16c-.552 0-1 .448-1 1s.448 1 1 1h16c.552 0 1-.448 1-1s-.448-1-1-1zm-3 6h-10c-.552 0-1 .448-1 1s.448 1 1 1h10c.552 0 1-.448 1-1s-.448-1-1-1z"/><path d="m141.998 21h-3l.004-8.9981c0-.5533-.45-1.0019-1.002-1.0019-.553 0-.998.4486-.998 1.0019l-.004 8.9981h-8.998c-.553 0-1 .4472-1 1.0005 0 .5522.447 1.0004 1 1.0004h8.998l.002 8.9986c0 .5523.447 1.0005 1 1.0005.552 0 1-.4482 1-1.0005l-.002-8.9986 9.002-.0009c.552 0 1-.4482 1-1.0005 0-.5532-.448-1.0004-1-1.0004"/></g></svg>