<svg width="140" height="44" viewBox="0 0 140 44" fill="none" xmlns="http://www.w3.org/2000/svg">
<rect x="1" y="1" width="64" height="42" rx="21" stroke="#005A7A" stroke-width="2"/>
<rect x="74" width="66" height="44" rx="22" fill="#005A7A"/>
<path d="M40.5994 14.2001C40.1604 13.8681 39.5324 13.9591 39.2014 14.4001L30.8204 25.5751L26.6244 22.2191C26.1944 21.8741 25.5654 21.9451 25.2184 22.3751C24.8734 22.8061 24.9454 23.4361 25.3744 23.7811L31.1804 28.4251L40.7994 15.6001C41.1314 15.1581 41.0414 14.5311 40.5994 14.2001Z" fill="#005A7A"/>
<path d="M114.599 14.2001C114.16 13.8681 113.532 13.9591 113.201 14.4001L104.82 25.5751L100.624 22.2191C100.194 21.8741 99.5654 21.9451 99.2184 22.3751C98.8734 22.8061 98.9454 23.4361 99.3744 23.7811L105.18 28.4251L114.799 15.6001C115.131 15.1581 115.041 14.5311 114.599 14.2001Z" fill="white"/>
</svg>
