<svg fill="none" height="44" viewBox="0 0 140 44" width="140" xmlns="http://www.w3.org/2000/svg"><rect height="42" rx="21" stroke="#005a7a" stroke-width="2" width="64" x="1" y="1"/><rect fill="#005a7a" height="44" rx="22" width="66" x="74"/><path d="m40.5994 14.2001c-.439-.332-1.067-.241-1.398.2l-8.381 11.175-4.196-3.356c-.43-.345-1.059-.274-1.406.156-.345.431-.273 1.061.156 1.406l5.806 4.644 9.619-12.825c.332-.442.242-1.069-.2-1.4z" fill="#005a7a"/><path d="m114.599 14.2001c-.439-.332-1.067-.241-1.398.2l-8.381 11.175-4.196-3.356c-.43-.345-1.0586-.274-1.4056.156-.345.431-.273 1.061.156 1.406l5.8056 4.644 9.619-12.825c.332-.442.242-1.069-.2-1.4z" fill="#fff"/></svg>