<svg fill="none" height="44" viewBox="0 0 141 44" width="141" xmlns="http://www.w3.org/2000/svg"><path d="m4 1h94v42h-94c-1.65686 0-3-1.3431-3-3v-36c0-1.65685 1.34315-3 3-3z" fill="#fff" stroke="#005a7a" stroke-width="2"/><path d="m97 0h40c2.209 0 4 1.79086 4 4v36c0 2.2091-1.791 4-4 4h-40z" fill="#005a7a"/><path d="m126.599 14.2001c-.439-.332-1.067-.241-1.398.2l-8.381 11.175-4.196-3.356c-.43-.345-1.059-.274-1.406.156-.345.431-.273 1.061.156 1.406l5.806 4.644 9.619-12.825c.332-.442.242-1.069-.2-1.4z" fill="#fff"/></svg>