<svg width="141" height="44" viewBox="0 0 141 44" fill="none" xmlns="http://www.w3.org/2000/svg">
<path d="M4 1H98V43H4C2.34314 43 1 41.6569 1 40V4C1 2.34315 2.34315 1 4 1Z" fill="white" stroke="#005A7A" stroke-width="2"/>
<path d="M97 0H137C139.209 0 141 1.79086 141 4V40C141 42.2091 139.209 44 137 44H97V0Z" fill="#005A7A"/>
<path d="M126.599 14.2001C126.16 13.8681 125.532 13.9591 125.201 14.4001L116.82 25.5751L112.624 22.2191C112.194 21.8741 111.565 21.9451 111.218 22.3751C110.873 22.8061 110.945 23.4361 111.374 23.7811L117.18 28.4251L126.799 15.6001C127.131 15.1581 127.041 14.5311 126.599 14.2001Z" fill="white"/>
</svg>
