<svg fill="none" height="54" viewBox="0 0 80 54" width="80" xmlns="http://www.w3.org/2000/svg"><rect fill="#fff" height="52" rx="3" stroke="#005a7a" stroke-width="2" width="78" x="1" y="1"/><path d="m35 21c0 .5523-.4477 1-1 1s-1-.4477-1-1c0-3.8653 3.1347-7 7-7s7 3.1347 7 7c0 .5523-.4477 1-1 1s-1-.4477-1-1c0-2.7607-2.2393-5-5-5s-5 2.2393-5 5zm15.0002 10.1647v1.833c0 2.7659-2.2438 5.007-5.0086 5.002l-6.993-.011c-.1584-.0003-.3145-.0381-.4555-.1106l-6.05-3.109-.1033-.0612c-1.4558-.9851-1.8299-2.9156-.8262-4.3419.8605-1.2221 2.4831-1.6985 3.9016-1.1615l2.535.9595v-9.1633c0-1.6573 1.3428-3.001 3-3.001 1.6565 0 3 1.3439 3 3.001v4.4218l5.4882 3.137c.9344.5339 1.5118 1.5292 1.5118 2.6052zm-5.0052 4.835c1.6588.003 3.0052-1.3418 3.0052-3.002v-1.833c0-.3584-.1929-.6909-.5041-.8688l-5.9921-3.425c-.3116-.1781-.5038-.5094-.5038-.8682v-5.002c0-.5526-.4482-1.001-1-1.001-.5524 0-1 .4479-1 1.001v10.611c0 .6995-.6998 1.1829-1.354.9352l-3.889-1.472c-.5741-.2173-1.2292-.0249-1.5582.4423-.3448.49-.2315 1.1356.2694 1.5045l5.7745 2.9674z" fill="#005a7a"/></svg>