<svg fill="none" height="72" viewBox="0 0 126 72" width="126" xmlns="http://www.w3.org/2000/svg" xmlns:xlink="http://www.w3.org/1999/xlink"><mask id="a" fill="#fff"><path clip-rule="evenodd" d="m4.56247 0c-2.20914 0-4.000001 1.79086-4.000001 4v54.4375c0 2.2092 1.790861 4 4.000001 4h10.24993l8.8751 8.875 8.875-8.875h88.8755c2.209 0 4-1.7908 4-4v-54.4375c0-2.20914-1.791-4-4-4z" fill="#fff" fill-rule="evenodd"/></mask><path clip-rule="evenodd" d="m4.56247 0c-2.20914 0-4.000001 1.79086-4.000001 4v54.4375c0 2.2092 1.790861 4 4.000001 4h10.24993l8.8751 8.875 8.875-8.875h88.8755c2.209 0 4-1.7908 4-4v-54.4375c0-2.20914-1.791-4-4-4z" fill="#fff" fill-rule="evenodd"/><path d="m4.56247 62.4375v-2zm10.24993 0 1.4143-1.4142-.5858-.5858h-.8285zm8.8751 8.875-1.4143 1.4143 1.4143 1.4142 1.4142-1.4142zm8.875-8.875v-2h-.8285l-.5857.5858zm88.8755 0v-2zm-118.87553-58.4375c0-1.10457.89543-2 2-2v-4c-3.31371 0-6 2.686297-6 6zm0 54.4375v-54.4375h-4v54.4375zm2 2c-1.10457 0-2-.8954-2-2h-4c0 3.3137 2.68629 6 6 6zm10.24993 0h-10.24993v4h10.24993zm10.2893 9.4608-8.875-8.875-2.8285 2.8284 8.875 8.8751zm6.0466-8.875-8.8751 8.875 2.8285 2.8285 8.875-8.8751zm90.2897-.5858h-88.8755v4h88.8755zm2-2c0 1.1046-.896 2-2 2v4c3.313 0 6-2.6863 6-6zm0-54.4375v54.4375h4v-54.4375zm-2-2c1.104 0 2 .89543 2 2h4c0-3.313709-2.687-6-6-6zm-116.87553 0h116.87553v-4h-116.87553z" fill="#005a7a" mask="url(#a)"/><rect fill="#e9eced" height="6" rx="3" width="31" x="13" y="12"/><rect fill="#e9eced" height="6" rx="3" width="99" x="13" y="23"/><rect fill="#005a7a" height="13" rx="3" width="25" x="13" y="37"/></svg>