<svg fill="none" height="28" viewBox="0 0 140 28" width="140" xmlns="http://www.w3.org/2000/svg"><g fill="#005a7a"><path d="m14.6843 2.49379 2.5702 7.64381 8.0304.0934c.6911.0081.9771.8927.4229 1.3066l-6.4428 4.817 2.3931 7.7013c.2056.6627-.5426 1.2087-1.1067.8073l-6.551-4.667-6.5518 4.6661c-.5632.4014-1.31234-.1455-1.10673-.8073l2.39314-7.7013-6.44278-4.817c-.55426-.4139-.26819-1.2985.42284-1.3066l8.03043-.0934 2.5702-7.64381c.2217-.65734 1.1478-.65734 1.3686.0009z"/><path d="m42.6843 2.49379 2.5702 7.64381 8.0304.0934c.6911.0081.9771.8927.4229 1.3066l-6.4428 4.817 2.3931 7.7013c.2056.6627-.5426 1.2087-1.1067.8073l-6.551-4.667-6.5518 4.6661c-.5632.4014-1.3123-.1455-1.1067-.8073l2.3931-7.7013-6.4428-4.817c-.5542-.4139-.2682-1.2985.4229-1.3066l8.0304-.0934 2.5702-7.64381c.2217-.65734 1.1478-.65734 1.3686.0009z"/><path d="m70.6843 2.49379 2.5702 7.64381 8.0304.0934c.6911.0081.9771.8927.4229 1.3066l-6.4428 4.817 2.3931 7.7013c.2056.6627-.5426 1.2087-1.1067.8073l-6.551-4.667-6.5518 4.6661c-.5632.4014-1.3123-.1455-1.1067-.8073l2.3931-7.7013-6.4428-4.817c-.5542-.4139-.2682-1.2985.4229-1.3066l8.0304-.0934 2.5702-7.64381c.2217-.65734 1.1478-.65734 1.3686.0009z"/><path d="m98.6843 2.49379 2.5697 7.64381 8.031.0934c.691.0081.977.8927.423 1.3066l-6.443 4.817 2.393 7.7013c.206.6627-.543 1.2087-1.107.8073l-6.5506-4.667-6.5518 4.6661c-.5632.4014-1.3123-.1455-1.1067-.8073l2.3931-7.7013-6.4428-4.817c-.5542-.4139-.2682-1.2985.4229-1.3066l8.0304-.0934 2.5702-7.64381c.2217-.65734 1.1478-.65734 1.3686.0009z"/><path d="m126.684 2.49379 2.57 7.64381 8.031.0934c.691.0081.977.8927.423 1.3066l-6.443 4.817 2.393 7.7013c.206.6627-.543 1.2087-1.107.8073l-6.551-4.667-6.551 4.6661c-.564.4014-1.313-.1455-1.107-.8073l2.393-7.7013-6.443-4.817c-.554-.4139-.268-1.2985.423-1.3066l8.03-.0934 2.571-7.64381c.221-.65734 1.147-.65734 1.368.0009z"/></g></svg>