<svg fill="none" height="31" viewBox="0 0 75 31" width="75" xmlns="http://www.w3.org/2000/svg"><path d="m19.342.199998h-19.2440312v2.584002h8.2620012v21.216h2.72003v-21.216h8.262zm16.7312 7.701002h-2.788l-5.678 10.098-6.001-10.098h-2.839l7.395 12.614-6.001 10.353h2.805zm11.6566-.323c-2.652 0-4.59 1.071-5.865 2.703v-2.38h-2.55v22.899h2.55v-9.18c1.275 1.632 3.213 2.703 5.865 2.703 4.522 0 8.041-3.536 8.041-8.381 0-4.828-3.519-8.364-8.041-8.364zm-.306 2.38c3.417 0 5.746 2.669 5.746 5.984 0 3.332-2.295 6.001-5.746 6.001-3.366 0-5.729-2.584-5.729-6.001 0-3.4 2.363-5.984 5.729-5.984zm19.8406-2.38c-4.59 0-7.99 3.451-7.99 8.381 0 4.981 3.383 8.364 8.143 8.364 2.363 0 4.607-.595 6.613-2.516l-1.36-1.734c-1.377 1.258-3.111 2.023-5.1 2.023-2.907 0-5.338-1.785-5.695-5.253h12.903c.034-.289.051-.629.051-.952-.034-4.896-3.196-8.313-7.565-8.313zm-.051 2.261c2.737 0 4.709 1.938 5.032 4.947h-10.336c.408-2.907 2.329-4.947 5.304-4.947z" fill="#005a7a"/></svg>