<svg width="30" height="48" viewBox="0 0 30 48" fill="none" xmlns="http://www.w3.org/2000/svg">
<path d="M15.6843 24.5153L18.2545 32.4914L26.2849 32.5889C26.976 32.5973 27.262 33.5204 26.7078 33.9523L20.265 38.9787L22.6581 47.0148C22.8637 47.7064 22.1155 48.2761 21.5514 47.8572L15.0004 42.9873L8.4486 47.8563C7.8854 48.2752 7.13626 47.7045 7.34187 47.0139L9.73501 38.9778L3.29223 33.9513C2.73797 33.5194 3.02404 32.5964 3.71507 32.5879L11.7455 32.4905L14.3157 24.5143C14.5374 23.8284 15.4635 23.8284 15.6843 24.5153Z" fill="#FEBE14"/>
<path d="M15.6843 0.515262L18.2545 8.49141L26.2849 8.58887C26.976 8.59732 27.262 9.52038 26.7078 9.95228L20.265 14.9787L22.6581 23.0148C22.8637 23.7064 22.1155 24.2761 21.5514 23.8572L15.0004 18.9873L8.4486 23.8563C7.8854 24.2752 7.13626 23.7045 7.34187 23.0139L9.73501 14.9778L3.29223 9.95134C2.73797 9.51944 3.02404 8.59638 3.71507 8.58793L11.7455 8.49047L14.3157 0.514322C14.5374 -0.171597 15.4635 -0.171597 15.6843 0.515262Z" fill="#D3D4D5"/>
</svg>
