<svg width="14" height="24" viewBox="0 0 14 24" fill="none" xmlns="http://www.w3.org/2000/svg">
<path d="M7.34215 0.257631L8.62725 4.2457L12.6424 4.29443C12.988 4.29866 13.131 4.76019 12.8539 4.97614L9.6325 7.48935L10.829 11.5074C10.9318 11.8532 10.5577 12.138 10.2757 11.9286L7.0002 9.49366L3.7243 11.9282C3.4427 12.1376 3.06813 11.8522 3.17093 11.507L4.3675 7.48888L1.14611 4.97567C0.868984 4.75972 1.01202 4.29819 1.35753 4.29396L5.37275 4.24523L6.65785 0.257161C6.7687 -0.0857986 7.23175 -0.0857986 7.34215 0.257631Z" fill="#D3D4D5"/>
<path d="M7.34215 12.2576L8.62725 16.2457L12.6424 16.2944C12.988 16.2987 13.131 16.7602 12.8539 16.9761L9.6325 19.4894L10.829 23.5074C10.9318 23.8532 10.5577 24.138 10.2757 23.9286L7.0002 21.4937L3.7243 23.9282C3.4427 24.1376 3.06813 23.8522 3.17093 23.507L4.3675 19.4889L1.14611 16.9757C0.868984 16.7597 1.01202 16.2982 1.35753 16.294L5.37275 16.2452L6.65785 12.2572C6.7687 11.9142 7.23175 11.9142 7.34215 12.2576Z" fill="#FEBE14"/>
</svg>
