<svg width="22" height="36" viewBox="0 0 22 36" fill="none" xmlns="http://www.w3.org/2000/svg">
<path d="M11.5132 18.3864L13.4409 24.3686L19.4637 24.4417C19.982 24.448 20.1965 25.1403 19.7808 25.4642L14.9487 29.234L16.7436 35.2611C16.8978 35.7798 16.3366 36.2071 15.9135 35.8929L11.0003 32.2405L6.08645 35.8922C5.66405 36.2064 5.10219 35.7784 5.2564 35.2604L7.05126 29.2333L2.21917 25.4635C1.80348 25.1396 2.01803 24.4473 2.5363 24.4409L8.55912 24.3679L10.4868 18.3857C10.653 17.8713 11.3476 17.8713 11.5132 18.3864Z" fill="#FEBE14"/>
<path d="M11.5132 0.386446L13.4409 6.36856L19.4637 6.44165C19.982 6.44799 20.1965 7.14028 19.7808 7.46421L14.9487 11.234L16.7436 17.2611C16.8978 17.7798 16.3366 18.2071 15.9135 17.8929L11.0003 14.2405L6.08645 17.8922C5.66405 18.2064 5.10219 17.7784 5.2564 17.2604L7.05126 11.2333L2.21917 7.4635C1.80348 7.13958 2.01803 6.44729 2.5363 6.44095L8.55912 6.36785L10.4868 0.385742C10.653 -0.128698 11.3476 -0.128698 11.5132 0.386446Z" fill="#D3D4D5"/>
</svg>
