<svg width="100" height="100" fill="none" xmlns="http://www.w3.org/2000/svg"><path fill="#fff" d="M0 0H100V100H0z"/><path d="M75.904 15.016C64.132 14.527 14.634 25.433 8.11 37.72-4.714 61.891 25.134 82.318 42.832 84.76c13.2 1.871 43.572-7.406 50.321-20.427 5.25-9.929-.75-48.666-17.249-49.317z" fill="#C7E5F2" fill-opacity=".2"/><g clip-path="url(#clip0)"><path d="M43.12 77.705H32.165c-1.754 0-3.166-1.473-3.166-3.304V24.304C29 22.474 30.412 21 32.166 21H43.12c1.755 0 3.167 1.473 3.167 3.304v50.097c0 1.83-1.412 3.304-3.167 3.304z" fill="#4661CC"/><path d="M70.117 72.526h1.926v-1.518H32.808c-2.097 0-3.808 1.786-3.808 4.018C29 77.26 30.711 79 32.808 79H72v-1.518h-1.925v-4.956h.042z" fill="#A97FF0"/><path d="M30.754 75.026c0 1.384 1.07 2.456 2.354 2.456h37.138v-3.438h-39.32c-.086.312-.172.625-.172.982z" fill="#C5E4F2"/><path d="M33.15 72.526c-.984 0-1.84.625-2.182 1.518h39.32v-1.518H33.15z" fill="#DDD"/><path d="M72 21H32.209v50.008H72V21z" fill="#6E85DF"/><path d="M66.909 21h-8.515v12.547l4.279-4.465 4.236 4.465" fill="#FCCA53"/></g><path fill-rule="evenodd" clip-rule="evenodd" d="M42 47a9 9 0 1 0 18 0 9 9 0 0 0-18 0z" fill="#fff"/><path fill-rule="evenodd" clip-rule="evenodd" d="M52 50.226c0 .729-.2 1.445-.58 2.076L51 53l-.42-.698a4.023 4.023 0 0 1-.58-2.076v-3.33c.496-.662 1.237-.896 2-.896v4.226zM47 45h8v-2h-8v2z" fill="#6E85DF"/><defs><clipPath id="clip0"><path fill="#fff" transform="translate(29 21)" d="M0 0H43V58H0z"/></clipPath></defs></svg>