<svg xmlns="http://www.w3.org/2000/svg" width="124" height="124" viewBox="0 0 124 124">
  <g fill="none" fill-rule="evenodd">
    <g fill="#E01E5A" transform="translate(0 65)">
      <path d="M26.4 13.2c0 7.1-5.8 12.9-12.9 12.9C6.4 26.1.6 20.3.6 13.2.6 6.1 6.4.3 13.5.3h12.9v12.9zm6.5 0C32.9 6.1 38.7.3 45.8.3c7.1 0 12.9 5.8 12.9 12.9v32.3c0 7.1-5.8 12.9-12.9 12.9-7.1 0-12.9-5.8-12.9-12.9V13.2z"/>
    </g>
    <g fill="#36C5F0">
      <path d="M45.8 26.4c-7.1 0-12.9-5.8-12.9-12.9C32.9 6.4 38.7.6 45.8.6c7.1 0 12.9 5.8 12.9 12.9v12.9H45.8zm0 6.5c7.1 0 12.9 5.8 12.9 12.9 0 7.1-5.8 12.9-12.9 12.9H13.5C6.4 58.7.6 52.9.6 45.8c0-7.1 5.8-12.9 12.9-12.9h32.3z"/>
    </g>
    <g fill="#2EB67D" transform="translate(65)">
      <path d="M32.6 45.8c0-7.1 5.8-12.9 12.9-12.9 7.1 0 12.9 5.8 12.9 12.9 0 7.1-5.8 12.9-12.9 12.9H32.6V45.8zm-6.5 0c0 7.1-5.8 12.9-12.9 12.9C6.1 58.7.3 52.9.3 45.8V13.5C.3 6.4 6.1.6 13.2.6c7.1 0 12.9 5.8 12.9 12.9v32.3z"/>
    </g>
    <g fill="#ECB22E" transform="translate(65 65)">
      <path d="M13.2 32.6c7.1 0 12.9 5.8 12.9 12.9 0 7.1-5.8 12.9-12.9 12.9C6.1 58.4.3 52.6.3 45.5V32.6h12.9zm0-6.5C6.1 26.1.3 20.3.3 13.2.3 6.1 6.1.3 13.2.3h32.3c7.1 0 12.9 5.8 12.9 12.9 0 7.1-5.8 12.9-12.9 12.9H13.2z"/>
    </g>
  </g>
</svg>
